<svg id="Layer_1" xmlns="http://www.w3.org/2000/svg" width="1000" height="1000"><style>.st0{fill:#ffc83d}</style><path class="st0" d="M877.6 279.1c-19-32.5-41.7-62-68.3-88.5-26.5-26.5-56-49.3-88.5-68.3s-67.3-33.7-104.6-44.1C579 67.8 540.3 62.6 500 62.6s-79.1 5.2-116.3 15.7c-37.2 10.4-72.1 25.2-104.6 44.1-32.5 19-62 41.7-88.5 68.3-26.5 26.5-49.3 56-68.3 88.5s-33.7 67.3-44.1 104.6c-10.4 37.2-15.7 76-15.7 116.3s5.2 79.1 15.7 116.3c10.4 37.2 25.1 72.1 44.1 104.6s41.7 62 68.3 88.5c26.5 26.5 56 49.3 88.5 68.3s67.3 33.7 104.6 44.1c37.2 10.4 76 15.7 116.3 15.7 21.4 0 42.7-1.5 63.9-4.6 21.2-3.1 42-7.8 62.6-14.1L522.2 814.8c-1.4.6-2.8.9-4.1.9H514c-30.1 0-59.8-3.5-88.9-10.4-29.1-7-56.5-17.5-82-31.7s-48.7-31.8-69.6-52.8c-20.9-21-38-45.7-51.3-74.1-2.3-4.6-3.5-9.4-3.5-14.3 0-8.4 3.1-15.7 9.3-22s13.6-9.3 22-9.3c7 0 12.3 1.5 16.1 4.6 3.8 3 7.7 7.2 11.7 12.4 5.5 7.5 10.5 15.2 15 23 4.5 7.8 9.6 15.5 15.4 23 11 14.2 23.8 26.8 38.5 37.8 14.6 11 30.4 20.4 47.2 28 16.8 7.7 34.2 13.5 52.2 17.4 18 3.9 36 5.9 53.9 5.9 17.7 0 35.6-1.9 53.7-5.9 18.1-3.9 35.5-9.7 52.2-17.4 16.7-7.7 32.4-17 47.2-28 14.8-11 27.7-23.6 38.7-37.8 5.8-7.5 10.9-15.2 15.4-23 4.5-7.8 9.5-15.5 15-23 4.1-5.2 8-9.3 11.7-12.4 3.8-3 9.1-4.6 16.1-4.6 8.4 0 15.7 3.1 22 9.3s9.3 13.6 9.3 22c0 5.5-1.4 11.1-4.1 16.8-2.8 5.6-5.7 10.5-8.9 14.6 7.2 7 15 14.2 23.2 21.7 8.3 7.5 16.2 15.4 23.7 23.7 7.5 8.3 14.4 16.9 20.7 25.9 6.2 9 10.9 18.3 14.1 27.8 28.7-38.5 50.4-79.9 65.2-124.1 14.8-44.2 22.2-90.4 22.2-138.5 0-40.3-5.2-79.1-15.7-116.3-10.4-37.6-25.1-72.4-44.1-104.9zM437.4 468.7h-31.3c0-10.7-2-20.9-6.1-30.4-4.1-9.6-9.6-17.9-16.5-25-7-7.1-15.2-12.7-24.8-16.7-9.6-4.1-19.7-6.1-30.4-6.1-11 0-21.2 2-30.7 6.1s-17.7 9.6-24.8 16.7c-7.1 7.1-12.7 15.4-16.7 25-4.1 9.6-6.1 19.7-6.1 30.4h-31.3V453c0-15.1 2.9-29.3 8.7-42.6 5.8-13.3 13.6-24.9 23.5-34.8 9.9-9.9 21.5-17.6 34.8-23.3 13.3-5.6 27.5-8.5 42.6-8.5 15.1 0 29.3 2.8 42.6 8.5 13.3 5.6 24.9 13.4 34.8 23.3 9.9 9.9 17.6 21.5 23.3 34.8 5.6 13.3 8.5 27.5 8.5 42.6v15.7zm343.9 0H750c0-10.7-2-20.9-6.1-30.4-4.1-9.6-9.6-17.9-16.7-25-7.1-7.1-15.4-12.7-25-16.7-9.6-4.1-19.7-6.1-30.4-6.1-11 0-21.2 2-30.7 6.1s-17.6 9.6-24.6 16.7-12.5 15.4-16.5 25c-4.1 9.6-6.1 19.7-6.1 30.4h-31.3V453c0-15.1 2.8-29.3 8.5-42.6 5.6-13.3 13.4-24.9 23.2-34.8 9.9-9.9 21.4-17.6 34.6-23.3 13.2-5.6 27.5-8.5 42.8-8.5 15.1 0 29.3 2.8 42.6 8.5 13.3 5.6 24.9 13.4 34.8 23.3 9.9 9.9 17.7 21.5 23.5 34.8 5.8 13.3 8.7 27.5 8.7 42.6v15.7z"/><path class="st0" d="M561.3 809.6l.3.3.4-.4c-.2 0-.5 0-.7.1z"/><path d="M803.3 743.5c-7.4-9.6-15.7-18.6-25-27.2-9.3-8.5-18.4-17.3-27.4-26.3-9.6 12.5-19.9 24.3-30.9 35.4s-23 21.4-36.1 30.7l59.6 59.6-21.7 21.7-64.3-63.9c-15.1 8.4-30.6 15.7-46.5 22-3.4 1.3-6.8 2.6-10.2 3.7-12.5 4.3-25.4 7.7-38.7 10.2l-.4.4 43.7 43.9 36.1 36.2c10.1 10.1 22 18 35.4 23.5 13.5 5.5 27.5 8.3 41.9 8.3 15.1 0 29.3-2.8 42.6-8.5s24.9-13.4 34.8-23.3c9.9-9.9 17.7-21.5 23.5-34.8 5.8-13.3 8.7-27.5 8.7-42.6 0-14.2-2.3-26.9-7-38-4.7-11.1-10.8-21.5-18.1-31z" fill="#f03a17"/><path d="M982.2 367c-11.9-42.6-28.7-82.4-50.4-119.3-21.7-37-47.8-70.7-78.3-101.1C823 116.1 789.3 90 752.4 68.3c-37-21.7-76.7-38.6-119.3-50.4C590.4 5.9 546.1 0 500 0c-46.1 0-90.4 5.9-133 17.8-42.6 11.9-82.4 28.7-119.3 50.4-37 21.7-70.7 47.8-101.1 78.3C116.1 177 90 210.7 68.3 247.6S29.7 324.4 17.8 367C5.9 409.6 0 453.9 0 500c0 46.1 5.9 90.4 17.8 133.1 11.9 42.6 28.7 82.4 50.4 119.3 21.7 37 47.8 70.6 78.3 101.1 30.4 30.4 64.1 56.5 101.1 78.3 37 21.7 76.7 38.5 119.3 50.4 42.6 11.9 87 17.8 133.1 17.8 36.8 0 73-3.9 108.7-11.7 35.6-7.8 70.4-19.6 104.3-35.2 16.5 0 32.1-2.2 46.7-6.5 14.6-4.4 28-10.7 40.2-19.1 12.2-8.4 22.7-18.8 31.7-31.1s16.1-26.5 21.3-42.4c23.5-23.5 44.3-48.8 62.4-76.1 18.1-27.2 33.5-55.9 46.1-86.1 12.6-30.1 22.2-61.4 28.7-93.7 6.5-32.3 9.8-65 9.8-98 .1-46.2-5.8-90.5-17.7-133.1zM819.6 855.2c-5.8 13.3-13.6 24.9-23.5 34.8-9.9 9.8-21.5 17.6-34.8 23.3-13.3 5.6-27.5 8.5-42.6 8.5-14.5 0-28.5-2.8-41.9-8.3-13.5-5.5-25.3-13.3-35.4-23.5l-36.1-36.2-43.7-43.9-.3-.3c.2 0 .5-.1.7-.1 13.2-2.5 26.1-5.9 38.7-10.2 3.4-1.2 6.8-2.4 10.2-3.7 15.9-6.2 31.4-13.6 46.5-22l64.3 63.9 21.7-21.7-59.6-59.6c13.1-9.3 25.1-19.5 36.1-30.7s21.3-23 30.9-35.4c9 9 18.1 17.8 27.4 26.3 9.3 8.6 17.6 17.6 25 27.2 7.4 9.6 13.4 19.9 18 31.1 4.6 11.2 7 23.8 7 38 .1 15-2.9 29.2-8.6 42.5zm95.6-216.7c-14.8 44.2-36.5 85.6-65.2 124.1-3.2-9.6-7.9-18.8-14.1-27.8-6.2-9-13.1-17.6-20.7-25.9-7.5-8.3-15.4-16.2-23.7-23.7-8.3-7.5-16-14.8-23.2-21.7 3.2-4 6.1-8.9 8.9-14.6 2.8-5.6 4.1-11.2 4.1-16.8 0-8.4-3.1-15.7-9.3-22s-13.6-9.3-22-9.3c-7 0-12.3 1.5-16.1 4.6-3.8 3-7.7 7.2-11.7 12.4-5.5 7.5-10.5 15.2-15 23-4.5 7.8-9.6 15.5-15.4 23-11 14.2-23.9 26.8-38.7 37.8-14.8 11-30.5 20.4-47.2 28-16.7 7.7-34.1 13.5-52.2 17.4-18.1 3.9-36 5.9-53.7 5.9-18 0-36-1.9-53.9-5.9-18-3.9-35.4-9.7-52.2-17.4-16.8-7.7-32.5-17-47.2-28-14.6-11-27.5-23.6-38.5-37.8-5.8-7.5-10.9-15.2-15.4-23-4.5-7.8-9.5-15.5-15-23-4.1-5.2-8-9.3-11.7-12.4-3.8-3-9.1-4.6-16.1-4.6-8.4 0-15.7 3.1-22 9.3s-9.3 13.6-9.3 22c0 4.9 1.2 9.7 3.5 14.3 13.3 28.4 30.4 53.1 51.3 74.1 20.9 21 44 38.6 69.6 52.8 25.5 14.2 52.8 24.8 82 31.7 29.1 7 58.8 10.4 88.9 10.4h4.1c1.3 0 2.7-.3 4.1-.9l104.3 103.9c-20.6 6.4-41.4 11.1-62.6 14.1-21.2 3-42.5 4.6-63.9 4.6-40.3 0-79.1-5.2-116.3-15.7-37.2-10.4-72.1-25.2-104.6-44.1-32.5-19-62-41.8-88.5-68.3s-49.3-56-68.3-88.5-33.7-67.3-44.1-104.6c-10.4-37.2-15.7-76-15.7-116.3s5.2-79.1 15.7-116.3c10.4-37.2 25.1-72.1 44.1-104.6s41.7-62 68.3-88.5c26.5-26.5 56-49.3 88.5-68.3s67.3-33.7 104.6-44.1c37.2-10.4 76-15.7 116.3-15.7s79 5.2 116.3 15.7c37.2 10.4 72.1 25.2 104.6 44.1 32.5 19 62 41.7 88.5 68.3 26.5 26.5 49.3 56 68.3 88.5s33.7 67.3 44.1 104.6c10.4 37.2 15.7 76 15.7 116.3-.1 48.5-7.5 94.7-22.3 138.9z"/><path d="M405.6 375.7c-9.9-9.9-21.5-17.6-34.8-23.3-13.3-5.6-27.5-8.5-42.6-8.5-15.1 0-29.3 2.8-42.6 8.5-13.3 5.6-24.9 13.4-34.8 23.3-9.9 9.9-17.7 21.5-23.5 34.8-5.8 13.3-8.7 27.5-8.7 42.6v15.7H250c0-10.7 2-20.9 6.1-30.4 4.1-9.6 9.6-17.9 16.7-25 7.1-7.1 15.4-12.7 24.8-16.7s19.6-6.1 30.7-6.1c10.7 0 20.9 2 30.4 6.1 9.6 4.1 17.8 9.6 24.8 16.7s12.5 15.4 16.5 25c4.1 9.6 6.1 19.7 6.1 30.4h31.3V453c0-15.1-2.8-29.3-8.5-42.6-5.6-13.3-13.4-24.9-23.3-34.7zM749.1 375.7c-9.9-9.9-21.5-17.6-34.8-23.3-13.3-5.6-27.5-8.5-42.6-8.5-15.4 0-29.6 2.8-42.8 8.5-13.2 5.6-24.7 13.4-34.6 23.3-9.9 9.9-17.6 21.5-23.2 34.8-5.6 13.3-8.5 27.5-8.5 42.6v15.7h31.3c0-10.7 2-20.9 6.1-30.4 4.1-9.6 9.6-17.9 16.5-25 7-7.1 15.1-12.7 24.6-16.7s19.6-6.1 30.7-6.1c10.7 0 20.9 2 30.4 6.1 9.6 4.1 17.9 9.6 25 16.7 7.1 7.1 12.7 15.4 16.7 25 4.1 9.6 6.1 19.7 6.1 30.4h31.3V453c0-15.1-2.9-29.3-8.7-42.6-5.8-13.3-13.6-24.9-23.5-34.7z"/></svg>