<svg id="Layer_1" xmlns="http://www.w3.org/2000/svg" width="100" height="100"><style>.st0{fill:none}.st1{fill:#ffc83d}</style><path class="st0" d="M12.2 72.1c.2.3.4.5.5.8-.3-.4-.5-.9-.8-1.3.2.2.2.3.3.5zM19.1 80.9l.4.4-.8-.8c.1.1.2.3.4.4zM27.9 87.8c.2.1.3.2.5.2-.4-.3-.9-.5-1.3-.8.3.2.5.4.8.6zM7.8 61.6c.1.2.2.4.2.5-.1-.5-.2-1-.4-1.4.1.3.1.6.2.9zM7.8 38.4c-.1.3-.1.6-.2.9.1-.5.2-1 .4-1.4 0 .1-.1.3-.2.5zM12.2 27.9c-.1.2-.2.3-.2.5.3-.4.5-.9.8-1.3-.2.3-.4.5-.6.8zM91.5 63.8c.1-.2.1-.3.1-.5-.2.5-.3.9-.5 1.4.1-.2.3-.5.4-.9zM85 76.3c.2-.2.3-.5.4-.7-.1.2-.3.4-.4.7 0-.1 0-.1 0 0zM62.7 91.9h-.2.2zM56.4 93.3c.3 0 .6-.1.9-.2-.5.1-1.1.2-1.6.2h.7zM38.4 92.2c.3.1.6.1.9.2-.5-.1-1-.2-1.4-.4.1 0 .3.1.5.2zM38.4 7.8c-.2.1-.4.2-.5.2.5-.1 1-.2 1.4-.4-.3.1-.6.1-.9.2zM92.2 38.4c0-.2-.1-.3-.2-.5.1.5.2 1 .4 1.4-.1-.3-.1-.6-.2-.9zM19.1 19.1c-.1.1-.2.3-.4.4l.8-.8c-.1.1-.3.2-.4.4zM87.8 27.9c-.2-.3-.4-.5-.5-.8.3.4.5.9.8 1.3-.2-.2-.2-.3-.3-.5zM72.1 12.2c-.2-.1-.3-.2-.5-.2.4.3.9.5 1.3.8-.3-.2-.5-.4-.8-.6zM61.6 7.8c-.3-.1-.6-.1-.9-.2.5.1 1 .2 1.4.4-.1 0-.3-.1-.5-.2zM27.9 12.2c-.3.2-.5.4-.8.5.4-.3.9-.5 1.3-.8-.2.2-.3.2-.5.3zM80.9 19.1c-.1-.1-.3-.2-.4-.4l.8.8c-.1-.1-.2-.3-.4-.4z"/><path class="st1" d="M93.1 43c-.2-1.3-.5-2.5-.8-3.7-.1-.5-.2-1-.4-1.4-1-3.3-2.3-6.5-4-9.4-.3-.4-.5-.9-.8-1.3-.6-1-1.3-2-2-3-.3-.5-.7-.9-1-1.4-.9-1.1-1.9-2.2-2.9-3.3l-.8-.8c-1-1-2.1-2-3.3-2.9-.4-.4-.9-.7-1.4-1-1-.7-1.9-1.4-3-2-.4-.3-.9-.5-1.3-.8-3-1.7-6.1-3-9.4-4-.5-.1-1-.2-1.4-.4-1.2-.3-2.5-.6-3.7-.8-.6-.1-1.1-.2-1.7-.3a47.08 47.08 0 0 0-10.6 0c-.6.1-1.2.2-1.7.3-1.3.2-2.5.5-3.7.8-.5.1-1 .2-1.4.4-3.3 1-6.5 2.3-9.4 4-.4.3-.9.5-1.3.8-1 .6-2 1.3-3 2-.5.3-.9.7-1.4 1-1.1.9-2.2 1.9-3.3 2.9l-.8.8c-1 1-2 2.1-2.9 3.3-.4.4-.7.9-1 1.4-.7 1-1.4 1.9-2 3-.3.4-.5.9-.8 1.3-1.7 3-3 6.1-4 9.4-.1.5-.2 1-.4 1.4-.3 1.2-.6 2.5-.8 3.7-.1.6-.2 1.1-.3 1.7a47.08 47.08 0 0 0 0 10.6c.1.6.2 1.2.3 1.7.2 1.3.5 2.5.8 3.7.1.5.2 1 .4 1.4 1 3.3 2.3 6.5 4 9.4.3.4.5.9.8 1.3.6 1 1.3 2 2 3 .3.5.7.9 1 1.4.9 1.1 1.9 2.2 2.9 3.3l.8.8c1 1 2.1 2 3.3 2.9.4.4.9.7 1.4 1 1 .7 1.9 1.4 3 2 .4.3.9.5 1.3.8 3 1.7 6.1 3 9.4 4 .5.1 1 .2 1.4.4 1.2.3 2.5.6 3.7.8.6.1 1.1.2 1.7.3 1.7.2 3.5.3 5.3.3 1.9 0 3.8-.2 5.6-.4.5-.1 1.1-.2 1.6-.2 1.8-.3 3.5-.7 5.2-1.2h.2L52.2 81.5c-.1.1-.3.1-.4.1h-.4c-3 0-6-.3-8.9-1-2.9-.7-5.6-1.8-8.2-3.2s-4.9-3.2-7-5.3-3.8-4.6-5.1-7.4c-.2-.5-.3-.9-.3-1.4 0-.8.3-1.6.9-2.2s1.4-.9 2.2-.9c.7 0 1.2.2 1.6.5s.8.7 1.2 1.2c.6.8 1.1 1.5 1.5 2.3.4.8 1 1.6 1.5 2.3 1.1 1.4 2.4 2.7 3.8 3.8s3 2 4.7 2.8c1.7.8 3.4 1.3 5.2 1.7s3.6.6 5.4.6c1.8 0 3.6-.2 5.4-.6 1.8-.4 3.6-1 5.2-1.7 1.7-.8 3.2-1.7 4.7-2.8 1.5-1.1 2.8-2.4 3.9-3.8.6-.8 1.1-1.5 1.5-2.3.4-.8.9-1.6 1.5-2.3.4-.5.8-.9 1.2-1.2s.9-.5 1.6-.5c.8 0 1.6.3 2.2.9.6.6.9 1.4.9 2.2 0 .6-.1 1.1-.4 1.7s-.6 1.1-.9 1.5c.7.7 1.5 1.4 2.3 2.2s1.6 1.5 2.4 2.4 1.4 1.7 2.1 2.6c.6.9 1.1 1.8 1.4 2.7.2-.2.3-.4.5-.6 1.2-1.6 2.2-3.3 3.2-5 .2-.3.3-.7.5-1 .8-1.5 1.4-3.1 2-4.7.2-.5.4-.9.5-1.4.6-1.8 1-3.7 1.4-5.6.1-.5.2-1.1.3-1.7.3-2 .5-4.1.5-6.2 0-1.8-.1-3.5-.3-5.3-.2-.8-.3-1.3-.4-1.9zm-49.4 3.9h-3.1c0-1.1-.2-2.1-.6-3-.4-1-1-1.8-1.7-2.5s-1.5-1.3-2.5-1.7c-1-.4-2-.6-3-.6-1.1 0-2.1.2-3.1.6-.9.4-1.8 1-2.5 1.7s-1.3 1.5-1.7 2.5c-.4 1-.6 2-.6 3h-3.1v-1.6c0-1.5.3-2.9.9-4.3.6-1.3 1.4-2.5 2.3-3.5 1-1 2.1-1.8 3.5-2.3 1.3-.6 2.8-.8 4.3-.8s2.9.3 4.3.8c1.3.6 2.5 1.3 3.5 2.3 1 1 1.8 2.1 2.3 3.5.6 1.3.8 2.8.8 4.3v1.6zm34.4 0H75c0-1.1-.2-2.1-.6-3-.4-1-1-1.8-1.7-2.5s-1.5-1.3-2.5-1.7c-1-.4-2-.6-3-.6-1.1 0-2.1.2-3.1.6-.9.4-1.8 1-2.5 1.7-.6.6-1.2 1.5-1.6 2.4-.4 1-.6 2-.6 3h-3.1v-1.6c0-1.5.3-2.9.8-4.3.6-1.3 1.3-2.5 2.3-3.5 1-1 2.1-1.8 3.5-2.3 1.3-.6 2.7-.8 4.3-.8 1.5 0 2.9.3 4.3.8 1.3.6 2.5 1.3 3.5 2.3 1 1 1.8 2.1 2.3 3.5.6 1.3.9 2.8.9 4.3v1.7z"/><path class="st1" d="M75.1 69s-.1.1 0 0c0 .1.1.1.2.1-.1 0-.2 0-.2-.1zM60 84.9l.6.6c0-.1-.1-.1-.1-.2l-.5-.4z"/><path d="M80.3 74.3c-.7-1-1.6-1.9-2.5-2.7-.9-.8-1.7-1.6-2.6-2.5-.1 0-.2 0-.2-.1-.9 1.2-1.9 2.4-3 3.5s-2.3 2.1-3.6 3.1l6 6-2.2 2.2-6.4-6.4c-.9.5-1.8.9-2.7 1.3-.7.3-1.3.7-2 .9-1.6.6-3.2 1.1-5 1.4l3.9 3.9.5.5c0 .1.1.1.1.2l3.5 3.5c1 1 2.2 1.8 3.5 2.3 1.3.6 2.7.8 4.2.8s2.9-.3 4.3-.8c1.3-.6 2.5-1.3 3.5-2.3s1.8-2.1 2.3-3.5c.6-1.3.9-2.8.9-4.3 0-1.4-.2-2.7-.7-3.8s-1-2.2-1.8-3.2z" fill="#f03a17"/><path d="M98.2 36.7c-1.2-4.3-2.9-8.2-5-11.9s-4.8-7.1-7.8-10.1S78.9 9 75.2 6.8c-3.7-2.2-7.7-3.9-11.9-5S54.6 0 50 0s-9 .6-13.3 1.8-8.2 2.9-11.9 5-7.1 4.8-10.1 7.8S9 21.1 6.8 24.8s-3.9 7.7-5 11.9S0 45.4 0 50s.6 9 1.8 13.3 2.9 8.2 5 11.9c2.2 3.7 4.8 7.1 7.8 10.1S21 91 24.7 93.1s7.7 3.9 11.9 5S45.4 100 50 100c3.7 0 7.3-.4 10.9-1.2 3.6-.8 7-2 10.4-3.5 1.7 0 3.2-.2 4.7-.7s2.8-1.1 4-1.9c1.2-.8 2.3-1.9 3.2-3.1.9-1.2 1.6-2.6 2.1-4.2 2.3-2.3 4.4-4.9 6.2-7.6s3.3-5.6 4.6-8.6c1.3-3 2.2-6.1 2.9-9.4.7-3.2 1-6.5 1-9.8 0-4.6-.6-9-1.8-13.3zM82 85.5c-.6 1.3-1.4 2.5-2.3 3.5s-2.1 1.8-3.5 2.3c-1.3.6-2.8.8-4.3.8-1.4 0-2.8-.3-4.2-.8-1.3-.6-2.5-1.3-3.5-2.3l-3.5-3.5-.7-.6-3.9-3.9c1.7-.3 3.4-.8 5-1.4.7-.3 1.3-.6 2-.9.9-.4 1.8-.8 2.7-1.3l6.4 6.4 2.2-2.2-6-6c1.3-.9 2.5-1.9 3.6-3.1 1.1-1.1 2.1-2.2 3-3.5l.1-.1c.1.1.1.1.2.1.8.8 1.7 1.7 2.6 2.5.9.9 1.8 1.8 2.5 2.7s1.3 2 1.8 3.1.7 2.4.7 3.8c-.1 1.7-.4 3.1-.9 4.4zm11.3-29.3c-.1.6-.2 1.1-.3 1.7-.3 1.9-.8 3.7-1.4 5.6 0 .2-.1.3-.1.5-.1.3-.3.6-.4.9-.6 1.6-1.2 3.2-2 4.7-.2.3-.3.7-.5 1-.9 1.7-2 3.4-3.2 5-.2.2-.3.5-.4.7v-.1c-.3-.9-.8-1.8-1.4-2.7-.6-.9-1.3-1.8-2.1-2.6s-1.5-1.6-2.4-2.4-1.6-1.5-2.3-2.2c.3-.4.6-.9.9-1.5s.4-1.1.4-1.7c0-.8-.3-1.6-.9-2.2-.6-.6-1.4-.9-2.2-.9-.7 0-1.2.2-1.6.5s-.8.7-1.2 1.2c-.6.8-1.1 1.5-1.5 2.3-.4.8-1 1.6-1.5 2.3-1.1 1.4-2.4 2.7-3.9 3.8-1.5 1.1-3.1 2-4.7 2.8-1.7.8-3.4 1.3-5.2 1.7-1.8.4-3.6.6-5.4.6-1.8 0-3.6-.2-5.4-.6s-3.5-1-5.2-1.7c-1.7-.8-3.3-1.7-4.7-2.8s-2.7-2.4-3.8-3.8c-.6-.8-1.1-1.5-1.5-2.3-.4-.8-.9-1.6-1.5-2.3-.4-.5-.8-.9-1.2-1.2s-.9-.5-1.6-.5c-.8 0-1.6.3-2.2.9s-.9 1.4-.9 2.2c0 .5.1 1 .3 1.4 1.3 2.8 3 5.3 5.1 7.4s4.4 3.9 7 5.3 5.3 2.5 8.2 3.2c2.9.7 5.9 1 8.9 1h.4c.1 0 .3 0 .4-.1l10.4 10.4h-.2c-1.7.5-3.5.9-5.2 1.2-.3 0-.6.2-.9.2-.3 0-.5 0-.8.1-1.9.2-3.7.4-5.6.4-1.8 0-3.5-.1-5.3-.3-.6-.1-1.2-.2-1.7-.3-1.3-.2-2.5-.5-3.7-.8-.3-.1-.6-.1-.9-.2-.2 0-.3-.1-.5-.2-3.3-1-6.5-2.3-9.4-4-.2-.1-.3-.2-.5-.2-.3-.2-.5-.4-.8-.5-1-.6-2-1.3-3-2-.5-.3-.9-.7-1.4-1-1.1-.9-2.2-1.9-3.3-2.9-.1-.1-.3-.2-.4-.4l-.4-.4c-1-1-2-2.1-2.9-3.3-.4-.4-.7-.9-1-1.4-.7-1-1.4-1.9-2-3-.2-.3-.4-.5-.5-.8-.1-.2-.2-.3-.2-.5-1.7-3-3-6.1-4-9.4-.1 0-.2-.2-.3-.4-.1-.3-.1-.6-.2-.9-.3-1.2-.6-2.5-.8-3.7-.1-.6-.2-1.1-.3-1.7a47.08 47.08 0 0 1 0-10.6c.1-.6.2-1.2.3-1.7.2-1.3.5-2.5.8-3.7.1-.3.1-.6.2-.9.1-.2.2-.4.2-.5 1-3.3 2.3-6.5 4-9.4.1-.2.2-.3.2-.5.2-.3.4-.5.5-.8.6-1 1.3-2 2-3 .3-.5.7-.9 1-1.4.9-1.1 1.9-2.2 2.9-3.3.1-.1.2-.3.4-.4.1-.1.3-.2.4-.4 1-1 2.1-2 3.3-2.9.4-.4.9-.7 1.4-1 1-.7 1.9-1.4 3-2 .3-.2.5-.4.8-.5.2-.1.3-.2.5-.2 3-1.7 6.1-3 9.4-4l.6-.3c.3-.1.6-.1.9-.2 1.2-.3 2.5-.6 3.7-.8.6-.1 1.1-.2 1.7-.3a47.08 47.08 0 0 1 10.6 0c.6.1 1.2.2 1.7.3 1.3.2 2.5.5 3.7.8.3.1.6.1.9.2.2.1.4.2.5.2 3.3 1 6.5 2.3 9.4 4 .2.1.3.2.5.2.3.2.5.4.8.5 1 .6 2 1.3 3 2 .5.3.9.7 1.4 1 1.1.9 2.2 1.9 3.3 2.9.1.1.3.2.4.4.1.1.2.3.4.4 1 1 2 2.1 2.9 3.3.4.4.7.9 1 1.4.7 1 1.4 1.9 2 3 .2.3.4.5.5.8.1.2.2.3.2.5 1.7 3 3 6.1 4 9.4.1.2.1.3.2.5.1.3.1.6.2.9.3 1.2.6 2.5.8 3.7.1.6.2 1.1.3 1.7.2 1.7.3 3.5.3 5.3 0 2.2-.2 4.2-.4 6.3z"/><path d="M40.6 37.6c-1-1-2.1-1.8-3.5-2.3-1.3-.6-2.8-.8-4.3-.8s-2.9.3-4.3.8c-1.3.6-2.5 1.3-3.5 2.3-1 1-1.8 2.1-2.3 3.5-.6 1.3-.9 2.8-.9 4.3V47H25c0-1.1.2-2.1.6-3 .4-1 1-1.8 1.7-2.5s1.5-1.3 2.5-1.7c.9-.4 2-.6 3.1-.6s2.1.2 3 .6c1 .4 1.8 1 2.5 1.7s1.2 1.5 1.7 2.5c.4 1 .6 2 .6 3h3.1v-1.6c0-1.5-.3-2.9-.8-4.3-.7-1.4-1.4-2.5-2.4-3.5zM74.9 37.6c-1-1-2.1-1.8-3.5-2.3-1.3-.6-2.8-.8-4.3-.8s-3 .3-4.3.8c-1.3.6-2.5 1.3-3.5 2.3-1 1-1.8 2.1-2.3 3.5-.6 1.3-.8 2.8-.8 4.3V47h3.1c0-1.1.2-2.1.6-3 .4-1 1-1.8 1.7-2.5s1.5-1.3 2.5-1.7c.9-.4 2-.6 3.1-.6s2.1.2 3 .6c1 .4 1.8 1 2.5 1.7S74 43 74.4 44c.4 1 .6 2 .6 3h3.1v-1.6c0-1.5-.3-2.9-.9-4.3-.5-1.4-1.3-2.5-2.3-3.5z"/></svg>