<svg id="Layer_1" xmlns="http://www.w3.org/2000/svg" width="1000" height="1000"><style>.st0{fill:#ffc83d}.st1{fill:#fff}</style><path class="st0" d="M716.1 687.4h-2c-.1 1.3-.1 2.6-.3 3.9.8-1.3 1.5-2.6 2.3-3.9zM283.9 687.4c.7 1.3 1.5 2.6 2.3 3.9l-.3-3.9h-2z"/><path class="st0" d="M877.6 279.1c-19-32.5-41.7-62-68.3-88.5-26.5-26.5-56-49.3-88.5-68.3s-67.3-33.7-104.6-44.1C579 67.8 540.3 62.6 500 62.6s-79.1 5.2-116.3 15.7c-37.2 10.4-72.1 25.2-104.6 44.1-32.5 19-62 41.7-88.5 68.3-26.5 26.5-49.3 56-68.3 88.5s-33.7 67.3-44.1 104.6c-10.4 37.2-15.7 76-15.7 116.3s5.2 79.1 15.7 116.3c10.4 37.2 25.1 72.1 44.1 104.6s41.7 62 68.3 88.5c26.5 26.5 56 49.3 88.5 68.3s67.3 33.7 104.6 44.1c37.2 10.4 76 15.7 116.3 15.7s79-5.2 116.3-15.7c37.2-10.4 72.1-25.2 104.6-44.1 32.5-19 62-41.8 88.5-68.3s49.3-56 68.3-88.5 33.7-67.3 44.1-104.6c10.4-37.2 15.7-76 15.7-116.3s-5.2-79.1-15.7-116.3c-10.5-37.4-25.2-72.2-44.2-104.7zm-252.4 80.5c0-6.4 1.2-12.4 3.7-18s5.7-10.7 9.8-15c4.1-4.3 8.9-7.7 14.6-10.2 5.6-2.5 11.8-3.7 18.5-3.7 6.4 0 12.5 1.2 18.3 3.7 5.8 2.5 10.8 5.8 15 10 4.2 4.2 7.5 9.2 10 15 2.5 5.8 3.7 11.9 3.7 18.3v62.2c0 6.7-1.2 12.8-3.7 18.5-2.5 5.6-5.8 10.6-10 14.8-4.2 4.2-9.2 7.5-15 10-5.8 2.5-11.9 3.7-18.3 3.7-6.7 0-12.8-1.2-18.5-3.7-5.6-2.5-10.5-5.9-14.6-10.2-4.1-4.3-7.3-9.3-9.8-15-2.5-5.6-3.7-11.7-3.7-18v-62.4zm-343.9 0c0-6.4 1.2-12.5 3.7-18.3 2.5-5.8 5.8-10.8 10-15 4.2-4.2 9.1-7.5 14.8-10 5.6-2.5 11.8-3.7 18.5-3.7 6.4 0 12.4 1.2 18 3.7s10.7 5.9 15 10.2c4.3 4.3 7.7 9.3 10.2 15 2.5 5.6 3.7 11.7 3.7 18v62.2c0 6.4-1.2 12.4-3.7 18s-5.9 10.7-10.2 15c-4.4 4.4-9.4 7.8-15 10.2-5.6 2.5-11.7 3.7-18 3.7-6.7 0-12.8-1.2-18.5-3.7-5.6-2.5-10.6-5.8-14.8-10-4.2-4.2-7.5-9.1-10-14.8-2.5-5.6-3.7-11.8-3.7-18.5v-62zm500 203c0 25.8-3.3 50.7-10 74.8-6.7 24.1-16.2 46.5-28.5 67.2-12.3 20.7-27 39.6-44.1 56.7s-36 31.8-56.8 44.1c-20.7 12.3-43.1 21.8-67.2 28.5-24.1 6.7-49 10-74.8 10-25.8 0-50.7-3.3-74.8-10-24.1-6.7-46.4-16.2-67.2-28.5-20.7-12.3-39.6-27-56.7-44.1s-31.8-36-44.1-56.7c-12.3-20.7-21.8-43.1-28.5-67.2-6.7-24.1-10-49-10-74.8v-31.3h562.6v31.3z"/><path class="st1" d="M718.7 656.1v-93.5h-62.6v93.5h54.2zM437.4 687.4h-62.6v91.3c19.7 11.3 40.6 19.9 62.6 25.7v-117zM286.2 691.3c15 25.6 34.3 47.6 57.7 66.1v-70h-58l.3 3.9zM500 812.6c5.2 0 10.4-.2 15.6-.7 5.2-.4 10.4-.9 15.7-1.5v-123h-62.6v123c5.2.6 10.4 1.1 15.6 1.5 5.3.5 10.5.7 15.7.7zM624.8 687.4h-62.2v117c21.4-5.5 42.2-14.1 62.2-25.7v-91.3zM713.8 691.3l.3-3.9h-58v70c23.4-18.5 42.7-40.5 57.7-66.1zM624.8 567.6v-5h-62.2v93.5h62.2zM343.9 656.1v-93.5h-62.6v93.5h8.4zM468.7 562.6h62.6v93.5h-62.6zM437.4 562.6h-62.6v93.5h62.6z"/><path d="M982.2 367c-11.9-42.6-28.7-82.4-50.4-119.3-21.7-37-47.8-70.7-78.3-101.1C823 116.1 789.3 90 752.4 68.3c-37-21.7-76.7-38.6-119.3-50.4C590.4 5.9 546.1 0 500 0c-46.1 0-90.4 5.9-133 17.8-42.6 11.9-82.4 28.7-119.3 50.4-37 21.7-70.7 47.8-101.1 78.3C116.1 177 90 210.7 68.3 247.6S29.7 324.4 17.8 367C5.9 409.6 0 453.9 0 500c0 46.1 5.9 90.4 17.8 133.1 11.9 42.6 28.7 82.4 50.4 119.3 21.7 37 47.8 70.6 78.3 101.1 30.4 30.4 64.1 56.5 101.1 78.3 37 21.7 76.7 38.5 119.3 50.4 42.6 11.9 87 17.8 133.1 17.8 46.1 0 90.4-6 133-17.8 42.6-11.9 82.4-28.7 119.3-50.4 37-21.7 70.7-47.8 101.1-78.3 30.4-30.5 56.5-64.1 78.3-101.1 21.7-37 38.6-76.7 50.4-119.3 11.9-42.6 17.8-87 17.8-133.1.1-46.1-5.8-90.4-17.7-133zm-60.5 249.3c-10.4 37.2-25.2 72.1-44.1 104.6-19 32.5-41.7 62-68.3 88.5-26.5 26.5-56 49.3-88.5 68.3s-67.3 33.7-104.6 44.1c-37.3 10.4-76 15.7-116.3 15.7s-79.1-5.2-116.3-15.7c-37.2-10.4-72.1-25.2-104.6-44.1-32.5-19-62-41.8-88.5-68.3s-49.3-56-68.3-88.5-33.7-67.3-44.1-104.6c-10.4-37.2-15.7-76-15.7-116.3s5.2-79.1 15.7-116.3c10.4-37.2 25.1-72.1 44.1-104.6s41.7-62 68.3-88.5c26.5-26.5 56-49.3 88.5-68.3s67.3-33.7 104.6-44.1c37.2-10.4 76-15.7 116.3-15.7s79 5.2 116.3 15.7c37.2 10.4 72.1 25.2 104.6 44.1 32.5 19 62 41.7 88.5 68.3 26.5 26.5 49.3 56 68.3 88.5s33.7 67.3 44.1 104.6c10.4 37.2 15.7 76 15.7 116.3s-5.2 79.1-15.7 116.3z"/><path d="M295 455c4.2 4.2 9.1 7.5 14.8 10 5.6 2.5 11.8 3.7 18.5 3.7 6.4 0 12.4-1.2 18-3.7s10.7-5.9 15-10.2c4.3-4.3 7.7-9.3 10.2-15 2.5-5.6 3.7-11.7 3.7-18v-62.2c0-6.4-1.2-12.4-3.7-18s-5.9-10.7-10.2-15c-4.4-4.3-9.4-7.7-15-10.2-5.6-2.5-11.7-3.7-18-3.7-6.7 0-12.8 1.2-18.5 3.7-5.6 2.5-10.6 5.8-14.8 10-4.2 4.2-7.5 9.2-10 15-2.5 5.8-3.7 11.9-3.7 18.3v62.2c0 6.7 1.2 12.8 3.7 18.5 2.5 5.5 5.8 10.4 10 14.6zM218.7 562.6c0 25.8 3.3 50.7 10 74.8 6.7 24.1 16.2 46.5 28.5 67.2 12.3 20.7 27 39.6 44.1 56.7s36 31.8 56.7 44.1c20.7 12.3 43.1 21.8 67.2 28.5 24.1 6.7 49 10 74.8 10 25.8 0 50.7-3.3 74.8-10 24.1-6.7 46.4-16.2 67.2-28.5 20.7-12.3 39.6-27 56.8-44.1 17.1-17.1 31.8-36 44.1-56.7 12.3-20.7 21.8-43.1 28.5-67.2 6.7-24.1 10-49 10-74.8v-31.3H218.7v31.3zm437.4 23.2v-23.2h62.6v93.5H656v-70.3zm0 101.6h60c-.7 1.3-1.5 2.6-2.3 3.9-15 25.6-34.3 47.6-57.7 66.1v-70zm-93.5-124.8h62.2v93.5h-62.2v-93.5zm0 124.8h62.2v91.3c-20 11.6-40.7 20.1-62.2 25.7v-117zm-93.9-124.8h62.6v93.5h-62.6v-93.5zm0 124.8h62.6v123c-5.2.6-10.4 1.1-15.7 1.5-5.2.4-10.4.7-15.6.7-5.2 0-10.4-.2-15.7-.7-5.2-.4-10.4-.9-15.6-1.5v-123zm-93.9-119.6v-5.2h62.6v93.5h-62.6v-88.3zm0 119.6h62.6v117c-22-5.8-42.9-14.3-62.6-25.7v-91.3zm-30.9 70c-23.4-18.5-42.7-40.5-57.7-66.1-.8-1.3-1.5-2.6-2.3-3.9h60v70zm-62.6-194.8h62.6v93.5H281.2v-93.5zM638.7 454.8c4.1 4.4 8.9 7.8 14.6 10.2 5.6 2.5 11.8 3.7 18.5 3.7 6.4 0 12.5-1.2 18.3-3.7 5.8-2.5 10.8-5.8 15-10 4.2-4.2 7.5-9.1 10-14.8 2.5-5.6 3.7-11.8 3.7-18.5v-62.2c0-6.4-1.2-12.5-3.7-18.3-2.5-5.8-5.8-10.8-10-15-4.2-4.2-9.2-7.5-15-10-5.8-2.5-11.9-3.7-18.3-3.7-6.7 0-12.8 1.2-18.5 3.7-5.6 2.5-10.5 5.9-14.6 10.2-4.1 4.3-7.3 9.3-9.8 15-2.5 5.6-3.7 11.7-3.7 18v62.2c0 6.4 1.2 12.4 3.7 18 2.5 5.8 5.7 10.8 9.8 15.2z"/></svg>