<svg id="Layer_1" xmlns="http://www.w3.org/2000/svg" width="100" height="100"><style>.st0{fill:none}.st1{fill:#ffc83d}.st2{fill:#fff}</style><path class="st0" d="M12.2 27.9c-.1.2-.2.3-.2.5.3-.4.5-.9.8-1.3-.2.3-.4.5-.6.8zM27.9 12.2c-.3.2-.5.4-.8.5.4-.3.9-.5 1.3-.8-.2.2-.3.2-.5.3zM19.1 19.1c-.1.1-.2.3-.4.4l.8-.8c-.1.1-.3.2-.4.4zM7.8 38.4c-.1.3-.1.6-.2.9.1-.5.2-1 .4-1.4 0 .1-.1.3-.2.5zM38.4 7.8c-.2.1-.4.2-.5.2.5-.1 1-.2 1.4-.4-.3.1-.6.1-.9.2zM72.1 12.2c-.2-.1-.3-.2-.5-.2.4.3.9.5 1.3.8-.3-.2-.5-.4-.8-.6zM7.8 61.6c.1.2.2.4.2.5-.1-.5-.2-1-.4-1.4.1.3.1.6.2.9zM80.9 19.1c-.1-.1-.3-.2-.4-.4l.8.8c-.1-.1-.2-.3-.4-.4zM87.8 27.9c-.2-.3-.4-.5-.5-.8.3.4.5.9.8 1.3-.2-.2-.2-.3-.3-.5zM61.6 7.8c-.3-.1-.6-.1-.9-.2.5.1 1 .2 1.4.4-.1 0-.3-.1-.5-.2zM80.9 80.9l.4-.4-.8.8c.1-.1.3-.2.4-.4zM72.1 87.8c.3-.2.5-.4.8-.5-.4.3-.9.5-1.3.8.2-.2.3-.2.5-.3zM87.8 72.1c.1-.2.2-.3.2-.5-.3.4-.5.9-.8 1.3.2-.3.4-.5.6-.8zM38.4 92.2c.3.1.6.1.9.2-.5-.1-1-.2-1.4-.4.1 0 .3.1.5.2zM27.9 87.8c.2.1.3.2.5.2-.4-.3-.9-.5-1.3-.8.3.2.5.4.8.6zM19.1 80.9l.4.4-.8-.8c.1.1.2.3.4.4zM61.6 92.2c.2 0 .3-.1.5-.2-.5.1-1 .2-1.4.4.3-.1.6-.1.9-.2zM12.2 72.1c.2.3.4.5.5.8-.3-.4-.5-.9-.8-1.3.2.2.2.3.3.5zM92.2 61.6c.1-.3.1-.6.2-.9-.1.5-.2 1-.4 1.4 0-.1.1-.3.2-.5zM92.2 38.4c0-.2-.1-.3-.2-.5.1.5.2 1 .4 1.4-.1-.3-.1-.6-.2-.9z"/><path class="st1" d="M71.6 68.7c-.1.1-.1.1-.1.2 0-.1.1-.1.1-.2zM48.4 81.2s.1 0 0 0c.1 0 0 0 0 0z"/><path class="st1" d="M93.1 43c-.2-1.3-.5-2.5-.8-3.7-.1-.5-.2-1-.4-1.4-1-3.3-2.3-6.5-4-9.4-.3-.4-.5-.9-.8-1.3-.6-1-1.3-2-2-3-.3-.5-.7-.9-1-1.4-.9-1.1-1.9-2.2-2.9-3.3l-.8-.8c-1-1-2.1-2-3.3-2.9-.4-.4-.9-.7-1.4-1-1-.7-1.9-1.4-3-2-.4-.3-.9-.5-1.3-.8-3-1.7-6.1-3-9.4-4-.5-.1-1-.2-1.4-.4-1.2-.3-2.5-.6-3.7-.8-.6-.1-1.1-.2-1.7-.3a47.08 47.08 0 0 0-10.6 0c-.6.1-1.2.2-1.7.3-1.3.2-2.5.5-3.7.8-.5.1-1 .2-1.4.4-3.3 1-6.5 2.3-9.4 4-.4.3-.9.5-1.3.8-1 .6-2 1.3-3 2-.5.3-.9.7-1.4 1-1.1.9-2.2 1.9-3.3 2.9l-.8.8c-1 1-2 2.1-2.9 3.3-.4.4-.7.9-1 1.4-.7 1-1.4 1.9-2 3-.3.4-.5.9-.8 1.3-1.7 3-3 6.1-4 9.4-.1.5-.2 1-.4 1.4-.3 1.2-.6 2.5-.8 3.7-.1.6-.2 1.1-.3 1.7a47.08 47.08 0 0 0 0 10.6c.1.6.2 1.2.3 1.7.2 1.3.5 2.5.8 3.7.1.5.2 1 .4 1.4 1 3.3 2.3 6.5 4 9.4.3.4.5.9.8 1.3.6 1 1.3 2 2 3 .3.5.7.9 1 1.4.9 1.1 1.9 2.2 2.9 3.3l.8.8c1 1 2.1 2 3.3 2.9.4.4.9.7 1.4 1 1 .7 1.9 1.4 3 2 .4.3.9.5 1.3.8 3 1.7 6.1 3 9.4 4 .5.1 1 .2 1.4.4 1.2.3 2.5.6 3.7.8.6.1 1.1.2 1.7.3a47.08 47.08 0 0 0 10.6 0c.6-.1 1.2-.2 1.7-.3 1.3-.2 2.5-.5 3.7-.8.5-.1 1-.2 1.4-.4 3.3-1 6.5-2.3 9.4-4 .4-.3.9-.5 1.3-.8 1-.6 2-1.3 3-2 .5-.3.9-.7 1.4-1 1.1-.9 2.2-1.9 3.3-2.9l.8-.8c1-1 2-2.1 2.9-3.3.4-.4.7-.9 1-1.4.7-1 1.4-1.9 2-3 .3-.4.5-.9.8-1.3 1.7-3 3-6.1 4-9.4.1-.5.2-1 .4-1.4.3-1.2.6-2.5.8-3.7.1-.6.2-1.1.3-1.7a47.08 47.08 0 0 0 0-10.6c-.1-.6-.2-1.1-.3-1.7zm-71.2-.8c0-1.5.3-2.9.9-4.3s1.4-2.5 2.3-3.5c1-1 2.1-1.8 3.5-2.3 1.3-.6 2.8-.8 4.3-.8s2.9.3 4.3.8c1.3.6 2.5 1.3 3.5 2.3 1 1 1.8 2.1 2.3 3.5s.8 2.8.8 4.3v1.6h-3.1c0-1.1-.2-2.1-.6-3s-1-1.8-1.7-2.5-1.5-1.3-2.5-1.7c-.9-.4-1.9-.6-3-.6s-2.1.2-3.1.6c-.9.4-1.8 1-2.5 1.7s-1.3 1.5-1.7 2.5c-.4 1-.6 2-.6 3h-3.1v-1.6zm56.2 14.1c0 2.6-.3 5.1-1 7.5-.7 2.4-1.6 4.6-2.8 6.7-1.2 2.1-2.7 4-4.4 5.7s-3.6 3.2-5.7 4.4c-2.1 1.2-4.3 2.2-6.7 2.8s-4.9 1-7.5 1-5.1-.3-7.5-1-4.6-1.6-6.7-2.8c-2.1-1.2-4-2.7-5.7-4.4-1.7-1.7-3.2-3.6-4.4-5.7s-2.2-4.3-2.8-6.7c-.7-2.4-1-4.9-1-7.5v-3.1h56.3v3.1zm0-12.6H75c0-1.1-.2-2.1-.6-3s-1-1.8-1.7-2.5-1.5-1.2-2.5-1.7c-1-.4-2-.6-3-.6s-2.1.2-3 .6c-.9.4-1.8 1-2.5 1.7s-1.3 1.5-1.7 2.5-.6 1.9-.6 3h-3.1v-1.6c0-1.5.3-2.9.8-4.3s1.3-2.5 2.3-3.5c1-1 2.1-1.8 3.5-2.3 1.3-.6 2.7-.8 4.3-.8 1.5 0 2.9.3 4.3.8 1.3.6 2.5 1.3 3.5 2.3 1 1 1.8 2.1 2.3 3.5.6 1.3.9 2.8.9 4.3v1.6z"/><path class="st1" d="M50 81.3c.5 0 1 0 1.6-.1.5 0 1-.1 1.4-.1-1.1.1-2.2.2-3.3.2h.3z"/><path class="st2" d="M71.9 65.6v-9.3h-6.3v9.3h5.5zM43.7 68.7h-6.3v9.1c2 1.1 4.1 2 6.3 2.6V68.7zM71.5 68.9v-.2h-5.9v7c2.4-1.9 4.4-4.2 5.9-6.8zM48.5 81.2c.4 0 .8 0 1.3.1 1.1 0 2.2-.1 3.3-.2h.1V68.7h-6.3V81c.5.1 1 .2 1.6.2-.1 0 0 0 0 0zM34.4 75.7v-7h-6c1.5 2.8 3.5 5.1 6 7zM62.5 68.7h-6.2v11.7c2.1-.6 4.2-1.4 6.2-2.6v-9.1zM62.5 57.8v-1.5h-6.2v9.3h6.2zM46.9 56.3h6.3v9.3h-6.3zM43.7 56.3h-6.2V65.6h6.2zM34.4 58.9v-2.6h-6.3v9.3h6.3z"/><path d="M98.2 36.7c-1.2-4.3-2.9-8.2-5-11.9s-4.8-7.1-7.8-10.1S78.9 9 75.2 6.8c-3.7-2.2-7.7-3.9-11.9-5S54.6 0 50 0s-9 .6-13.3 1.8-8.2 2.9-11.9 5-7.1 4.8-10.1 7.8S9 21.1 6.8 24.8s-3.9 7.7-5 11.9S0 45.4 0 50s.6 9 1.8 13.3 2.9 8.2 5 11.9c2.2 3.7 4.8 7.1 7.8 10.1S21 91 24.7 93.1s7.7 3.9 11.9 5S45.4 100 50 100s9-.6 13.3-1.8 8.2-2.9 11.9-5c3.7-2.2 7.1-4.8 10.1-7.8S91 79 93.1 75.3c2.2-3.7 3.9-7.7 5-11.9S100 54.6 100 50s-.6-9-1.8-13.3zm-4.8 18.6c-.1.6-.2 1.2-.3 1.7-.2 1.3-.5 2.5-.8 3.7-.1.3-.1.6-.2.9 0 .2-.1.3-.2.5-1 3.3-2.3 6.5-4 9.4-.1.2-.2.3-.2.5-.2.3-.4.5-.5.8-.6 1-1.3 2-2 3-.3.5-.7.9-1 1.4-.9 1.1-1.9 2.2-2.9 3.3-.1.1-.2.3-.4.4l-.4.4c-1 1-2.1 2-3.3 2.9-.4.4-.9.7-1.4 1-1 .7-1.9 1.4-3 2-.3.2-.5.4-.8.5-.2.1-.3.2-.5.2-3 1.7-6.1 3-9.4 4-.2.1-.3.1-.5.2-.3.1-.6.1-.9.2-1.2.3-2.5.6-3.7.8-.6.1-1.1.2-1.7.3a47.08 47.08 0 0 1-10.6 0c-.6-.1-1.2-.2-1.7-.3-1.3-.2-2.5-.5-3.7-.8-.3-.1-.6-.1-.9-.2-.2 0-.3-.1-.5-.2-3.3-1-6.5-2.3-9.4-4-.2-.1-.3-.2-.5-.2-.3-.2-.5-.4-.8-.5-1-.6-2-1.3-3-2-.5-.3-.9-.7-1.4-1-1.1-.9-2.2-1.9-3.3-2.9-.1-.1-.3-.2-.4-.4l-.4-.4c-1-1-2-2.1-2.9-3.3-.4-.4-.7-.9-1-1.4-.7-1-1.4-1.9-2-3-.2-.3-.4-.5-.5-.8-.1-.2-.2-.3-.2-.5-1.7-3-3-6.1-4-9.4-.1-.1-.2-.3-.3-.5-.1-.3-.1-.6-.2-.9-.3-1.2-.6-2.5-.8-3.7-.1-.6-.2-1.1-.3-1.7a47.08 47.08 0 0 1 0-10.6c.1-.6.2-1.2.3-1.7.2-1.3.5-2.5.8-3.7.1-.3.1-.6.2-.9.1-.2.2-.4.2-.5 1-3.3 2.3-6.5 4-9.4.1-.2.2-.3.2-.5.2-.3.4-.5.5-.8.6-1 1.3-2 2-3 .3-.5.7-.9 1-1.4.9-1.1 1.9-2.2 2.9-3.3.1-.1.2-.3.4-.4.1-.1.3-.2.4-.4 1-1 2.1-2 3.3-2.9.4-.4.9-.7 1.4-1 1-.7 1.9-1.4 3-2 .3-.2.5-.4.8-.5.2-.1.3-.2.5-.2 3-1.7 6.1-3 9.4-4l.6-.3c.3-.1.6-.1.9-.2 1.2-.3 2.5-.6 3.7-.8.6-.1 1.1-.2 1.7-.3a47.08 47.08 0 0 1 10.6 0c.6.1 1.2.2 1.7.3 1.3.2 2.5.5 3.7.8.3.1.6.1.9.2.2.1.4.2.5.2 3.3 1 6.5 2.3 9.4 4 .2.1.3.2.5.2.3.2.5.4.8.5 1 .6 2 1.3 3 2 .5.3.9.7 1.4 1 1.1.9 2.2 1.9 3.3 2.9.1.1.3.2.4.4.1.1.2.3.4.4 1 1 2 2.1 2.9 3.3.4.4.7.9 1 1.4.7 1 1.4 1.9 2 3 .2.3.4.5.5.8.1.2.2.3.2.5 1.7 3 3 6.1 4 9.4.1.2.1.3.2.5.1.3.1.6.2.9.3 1.2.6 2.5.8 3.7.1.6.2 1.1.3 1.7.2 1.7.3 3.5.3 5.3s-.1 3.6-.3 5.4z"/><path d="M74.9 34.4c-1-1-2.1-1.8-3.5-2.3-1.3-.6-2.8-.8-4.3-.8s-3 .3-4.3.8c-1.3.6-2.5 1.3-3.5 2.3-1 1-1.8 2.1-2.3 3.5s-.8 2.8-.8 4.3v1.6h3.1c0-1.1.2-2.1.6-3s1-1.8 1.7-2.5 1.5-1.3 2.5-1.7c.9-.4 1.9-.6 3-.6s2.1.2 3 .6c1 .4 1.8 1 2.5 1.7s1.3 1.5 1.7 2.5.6 2 .6 3H78v-1.6c0-1.5-.3-2.9-.9-4.3-.4-1.3-1.2-2.5-2.2-3.5zM21.9 56.3c0 2.6.3 5.1 1 7.5.7 2.4 1.6 4.6 2.8 6.7s2.7 4 4.4 5.7c1.7 1.7 3.6 3.2 5.7 4.4 2.1 1.2 4.3 2.2 6.7 2.8s4.9 1 7.5 1 5.1-.3 7.5-1 4.6-1.6 6.7-2.8c2.1-1.2 4-2.7 5.7-4.4s3.2-3.6 4.4-5.7c1.2-2.1 2.2-4.3 2.8-6.7.7-2.4 1-4.9 1-7.5v-3.1H21.9v3.1zm43.7 3.1v-3.1h6.3v9.3h-6.2v-6.2zm0 9.3h6c0 .1-.1.1-.1.2-1.5 2.7-3.5 4.9-5.9 6.8v-7zm-9.3-12.4h6.2v9.3h-6.2v-9.3zm0 12.4h6.2v9.1c-2 1.2-4.1 2-6.2 2.6V68.7zm-9.4-12.4h6.3v9.3h-6.3v-9.3zm0 12.4h6.3V81h-.1c-.5.1-1 .1-1.4.1-.5 0-1 .1-1.6.1h-.3c-.4 0-.8 0-1.3-.1-.5 0-1-.1-1.5-.2V68.7zm-9.4-11.3v-1.1h6.2v9.3h-6.3v-8.2zm0 11.3h6.3v11.7c-2.2-.6-4.3-1.4-6.3-2.6v-9.1zm-3.1 7c-2.5-1.9-4.5-4.3-6-7h6v7zm-6.3-10.4v-9h6.3v9.4h-6.3v-.4zM25.6 40.7c.4-1 1-1.8 1.7-2.5s1.5-1.2 2.5-1.7c.9-.4 2-.6 3.1-.6s2.1.2 3 .6c.9.4 1.8 1 2.5 1.7s1.3 1.5 1.7 2.5.6 1.9.6 3h3.1v-1.6c0-1.5-.3-2.9-.8-4.3s-1.3-2.5-2.3-3.5c-1-1-2.1-1.8-3.5-2.3-1.3-.6-2.8-.8-4.3-.8s-2.9.3-4.3.8c-1.3.6-2.5 1.3-3.5 2.3-1 1-1.8 2.1-2.3 3.5s-.9 2.8-.9 4.3v1.6H25c0-1 .2-2 .6-3z"/></svg>