<svg xmlns="http://www.w3.org/2000/svg" width="1000" height="1000"><path d="M877.6 279.1c-19-32.5-41.7-62-68.3-88.5-26.5-26.5-56-49.3-88.5-68.3s-67.3-33.7-104.6-44.1C579 67.8 540.3 62.6 500 62.6s-79.1 5.2-116.3 15.7c-37.2 10.4-72.1 25.2-104.6 44.1-32.5 19-62 41.7-88.5 68.3-26.5 26.5-49.3 56-68.3 88.5s-33.7 67.3-44.1 104.6c-10.4 37.2-15.7 76-15.7 116.3s5.2 79.1 15.7 116.3c10.4 37.2 25.1 72.1 44.1 104.6s41.7 62 68.3 88.5c26.5 26.5 56 49.3 88.5 68.3s67.3 33.7 104.6 44.1c37.2 10.4 76 15.7 116.3 15.7s79-5.2 116.3-15.7c37.2-10.4 72.1-25.2 104.6-44.1 32.5-19 62-41.8 88.5-68.3s49.3-56 68.3-88.5 33.7-67.3 44.1-104.6c10.4-37.2 15.7-76 15.7-116.3s-5.2-79.1-15.7-116.3c-10.5-37.4-25.2-72.2-44.2-104.7zM218.7 453c0-15.1 2.9-29.3 8.7-42.6 5.8-13.3 13.6-24.9 23.5-34.8 9.9-9.9 21.5-17.6 34.8-23.3 13.3-5.6 27.5-8.5 42.6-8.5 15.1 0 29.3 2.8 42.6 8.5s24.9 13.4 34.8 23.3c9.9 9.9 17.6 21.5 23.3 34.8s8.5 27.5 8.5 42.6v15.7h-31.3c0-10.7-2-20.9-6.1-30.4-4.1-9.6-9.6-17.9-16.5-25-7-7.1-15.2-12.7-24.8-16.7-9.6-4.1-19.7-6.1-30.4-6.1-11 0-21.2 2-30.7 6.1s-17.7 9.6-24.8 16.7-12.7 15.4-16.7 25c-4.1 9.6-6.1 19.7-6.1 30.4h-31.3V453zm550.9 221.8c-2 6.7-4.3 13.3-7 20-2.6 6.7-5.4 13.2-8.5 19.6-3 6.4-6 12-8.9 16.9-12.5 22-27.5 41.9-45 59.6-17.5 17.7-37 32.7-58.3 45.2-21.3 12.5-44 22.1-68 28.9-24.1 6.8-48.7 10.2-73.9 10.2-25.2 0-49.9-3.4-73.9-10.2-24.1-6.8-46.7-16.5-68-28.9-21.3-12.5-40.7-27.5-58.3-45.2-17.5-17.7-32.5-37.5-45-59.6-2.6-4.6-5.5-10.2-8.5-16.7s-5.9-13.3-8.7-20.2c-2.8-7-5.2-13.8-7.4-20.4-2.2-6.7-3.5-12.6-4.1-17.8h547.8c-.9 5.7-2.3 11.9-4.3 18.6zm11.7-206.1H750c0-10.7-2-20.9-6.1-30.4-4.1-9.6-9.6-17.9-16.7-25s-15.4-12.7-25-16.7c-9.6-4.1-19.7-6.1-30.4-6.1-11 0-21.2 2-30.7 6.1s-17.6 9.6-24.6 16.7-12.5 15.4-16.5 25c-4.1 9.6-6.1 19.7-6.1 30.4h-31.3V453c0-15.1 2.8-29.3 8.5-42.6s13.4-24.9 23.2-34.8c9.9-9.9 21.4-17.6 34.6-23.3s27.5-8.5 42.8-8.5c15.1 0 29.3 2.8 42.6 8.5 13.3 5.6 24.9 13.4 34.8 23.3 9.9 9.9 17.7 21.5 23.5 34.8 5.8 13.3 8.7 27.5 8.7 42.6v15.7z" fill="#ffc83d"/><path d="M581.3 830c-8.4-14.8-19.9-26.4-34.4-34.8-14.5-8.4-30.1-12.6-46.9-12.6-16.8 0-32.5 4.2-47 12.6-14.5 8.4-25.9 20-34.3 34.8 26.4 9.3 53.5 13.9 81.3 13.9s54.9-4.6 81.3-13.9z" fill="#f03a17"/><path d="M982.2 367c-11.9-42.6-28.7-82.4-50.4-119.3-21.7-37-47.8-70.7-78.3-101.1C823 116.1 789.3 90 752.4 68.3c-37-21.7-76.7-38.6-119.3-50.4C590.4 5.9 546.1 0 500 0c-46.1 0-90.4 5.9-133 17.8-42.6 11.9-82.4 28.7-119.3 50.4-37 21.7-70.7 47.8-101.1 78.3C116.1 177 90 210.7 68.3 247.6c-21.7 37-38.6 76.7-50.4 119.3C5.9 409.6 0 453.9 0 500c0 46.1 5.9 90.4 17.8 133.1 11.9 42.6 28.7 82.4 50.4 119.3 21.7 37 47.8 70.6 78.3 101.1 30.4 30.4 64.1 56.5 101.1 78.3 37 21.7 76.7 38.5 119.3 50.4 42.6 11.9 87 17.8 133.1 17.8 46.1 0 90.4-6 133-17.8 42.6-11.9 82.4-28.7 119.3-50.4 37-21.7 70.7-47.8 101.1-78.3 30.4-30.5 56.5-64.1 78.3-101.1 21.7-37 38.6-76.7 50.4-119.3 11.9-42.6 17.8-87 17.8-133.1.1-46.1-5.8-90.4-17.7-133zm-60.5 249.3c-10.4 37.2-25.2 72.1-44.1 104.6-19 32.5-41.7 62-68.3 88.5-26.5 26.5-56 49.3-88.5 68.3s-67.3 33.7-104.6 44.1c-37.3 10.4-76 15.7-116.3 15.7s-79.1-5.2-116.3-15.7c-37.2-10.4-72.1-25.2-104.6-44.1-32.5-19-62-41.8-88.5-68.3s-49.3-56-68.3-88.5-33.7-67.3-44.1-104.6c-10.4-37.2-15.7-76-15.7-116.3s5.2-79.1 15.7-116.3c10.4-37.2 25.1-72.1 44.1-104.6s41.7-62 68.3-88.5c26.5-26.5 56-49.3 88.5-68.3s67.3-33.7 104.6-44.1c37.2-10.4 76-15.7 116.3-15.7s79 5.2 116.3 15.7c37.2 10.4 72.1 25.2 104.6 44.1 32.5 19 62 41.7 88.5 68.3 26.5 26.5 49.3 56 68.3 88.5s33.7 67.3 44.1 104.6c10.4 37.2 15.7 76 15.7 116.3s-5.2 79.1-15.7 116.3z"/><path d="M256.1 438.3c4.1-9.6 9.6-17.9 16.7-25s15.4-12.7 24.8-16.7 19.6-6.1 30.7-6.1c10.7 0 20.9 2 30.4 6.1 9.6 4.1 17.8 9.6 24.8 16.7s12.5 15.4 16.5 25c4.1 9.6 6.1 19.7 6.1 30.4h31.3V453c0-15.1-2.8-29.3-8.5-42.6s-13.4-24.9-23.3-34.8c-9.9-9.9-21.5-17.6-34.8-23.3s-27.5-8.5-42.6-8.5c-15.1 0-29.3 2.8-42.6 8.5-13.3 5.6-24.9 13.4-34.8 23.3-9.9 9.9-17.7 21.5-23.5 34.8-5.8 13.3-8.7 27.5-8.7 42.6v15.7H250c0-10.7 2-20.9 6.1-30.4zM749.1 375.7c-9.9-9.9-21.5-17.6-34.8-23.3-13.3-5.6-27.5-8.5-42.6-8.5-15.4 0-29.6 2.8-42.8 8.5s-24.7 13.4-34.6 23.3c-9.9 9.9-17.6 21.5-23.2 34.8s-8.5 27.5-8.5 42.6v15.7h31.3c0-10.7 2-20.9 6.1-30.4 4.1-9.6 9.6-17.9 16.5-25s15.1-12.7 24.6-16.7 19.6-6.1 30.7-6.1c10.7 0 20.9 2 30.4 6.1 9.6 4.1 17.9 9.6 25 16.7s12.7 15.4 16.7 25c4.1 9.6 6.1 19.7 6.1 30.4h31.3V453c0-15.1-2.9-29.3-8.7-42.6-5.8-13.3-13.6-24.9-23.5-34.7zM230.2 673.9c2.2 6.7 4.6 13.5 7.4 20.4 2.8 7 5.6 13.7 8.7 20.2 3 6.5 5.9 12.1 8.5 16.7 12.5 22 27.5 41.9 45 59.6 17.5 17.7 37 32.7 58.3 45.2 21.3 12.5 44 22.1 68 28.9 24.1 6.8 48.7 10.2 73.9 10.2 25.2 0 49.8-3.4 73.9-10.2 24.1-6.8 46.7-16.5 68-28.9 21.3-12.5 40.7-27.5 58.3-45.2 17.5-17.7 32.5-37.5 45-59.6 2.9-4.9 5.9-10.6 8.9-16.9 3-6.4 5.9-12.9 8.5-19.6 2.6-6.7 4.9-13.3 7-20 2-6.7 3.5-12.9 4.4-18.7H226.1c.6 5.3 1.9 11.2 4.1 17.9zM453 795.2c14.5-8.4 30.1-12.6 47-12.6 16.8 0 32.4 4.2 46.9 12.6 14.5 8.4 25.9 20 34.4 34.8-26.4 9.3-53.5 13.9-81.3 13.9s-54.9-4.6-81.3-13.9c8.4-14.8 19.8-26.4 34.3-34.8z"/></svg>