<svg id="Layer_1" xmlns="http://www.w3.org/2000/svg" width="100" height="100"><style>.st0{fill:none}</style><path class="st0" d="M15.8 77.2c-.4-.4-.7-.9-1-1.4.3.5.6 1 1 1.4zM12.2 72.1c.2.3.4.5.5.8-.3-.4-.5-.9-.8-1.3.2.2.2.3.3.5zM24.1 85.2c-.5-.3-.9-.7-1.4-1 .5.4 1 .7 1.4 1zM27.9 87.8c.2.1.3.2.5.2-.4-.3-.9-.5-1.3-.8.3.2.5.4.8.6zM38.4 92.2c.3.1.6.1.9.2-.5-.1-1-.2-1.4-.4.1 0 .3.1.5.2zM7.8 61.6c.1.2.2.4.2.5-.1-.5-.2-1-.4-1.4.1.3.1.6.2.9zM12.2 27.9c-.1.2-.2.3-.2.5.3-.4.5-.9.8-1.3-.2.3-.4.5-.6.8zM6.9 57c-.1-.6-.2-1.1-.3-1.7.1.6.2 1.1.3 1.7zM14.8 24.1c.3-.5.7-.9 1-1.4-.4.5-.7 1-1 1.4zM7.8 38.4c-.1.3-.1.6-.2.9.1-.5.2-1 .4-1.4 0 .1-.1.3-.2.5zM6.6 44.7c.1-.6.2-1.2.3-1.7-.1.6-.2 1.1-.3 1.7zM44.7 93.4c-.6-.1-1.2-.2-1.7-.3.6.1 1.1.2 1.7.3zM85.2 75.9c-.3.5-.7.9-1 1.4.4-.5.7-1 1-1.4zM92.2 61.6c.1-.3.1-.6.2-.9-.1.5-.2 1-.4 1.4 0-.1.1-.3.2-.5zM87.8 72.1c.1-.2.2-.3.2-.5-.3.4-.5.9-.8 1.3.2-.3.4-.5.6-.8zM93.4 55.3c-.1.6-.2 1.2-.3 1.7.1-.6.2-1.1.3-1.7zM72.1 87.8c.3-.2.5-.4.8-.5-.4.3-.9.5-1.3.8.2-.2.3-.2.5-.3zM57 93.1c-.6.1-1.1.2-1.7.3.6-.1 1.1-.2 1.7-.3zM61.6 92.2c.2 0 .3-.1.5-.2-.5.1-1 .2-1.4.4.3-.1.6-.1.9-.2zM22.8 15.8c.4-.4.9-.7 1.4-1-.5.3-1 .6-1.4 1zM77.2 84.2c-.4.4-.9.7-1.4 1 .5-.3 1-.6 1.4-1zM55.3 6.6c.6.1 1.2.2 1.7.3-.6-.1-1.1-.2-1.7-.3zM19.5 18.7c-.1.1-.3.2-.4.4-.1.1-.2.3-.4.4l.8-.8zM87.8 27.9c-.2-.3-.4-.5-.5-.8.3.4.5.9.8 1.3-.2-.2-.2-.3-.3-.5zM27.9 12.2c-.3.2-.5.4-.8.5.4-.3.9-.5 1.3-.8-.2.2-.3.2-.5.3zM92.2 38.4c0-.2-.1-.3-.2-.5.1.5.2 1 .4 1.4-.1-.3-.1-.6-.2-.9zM93.1 43c.1.6.2 1.1.3 1.7-.1-.6-.2-1.1-.3-1.7zM18.7 80.5c.1.1.2.3.4.4l.4.4c-.3-.2-.6-.5-.8-.8zM80.5 81.3c.1-.1.3-.2.4-.4l.4-.4c-.2.3-.5.6-.8.8zM81.3 19.5c-.1-.1-.2-.3-.4-.4-.1-.1-.3-.2-.4-.4l.8.8zM84.2 22.8c.4.4.7.9 1 1.4-.3-.5-.6-1-1-1.4zM43 6.9c.6-.1 1.1-.2 1.7-.3-.6.1-1.1.2-1.7.3zM38.4 7.8c-.2.1-.4.2-.5.2.5-.1 1-.2 1.4-.4-.3.1-.6.1-.9.2zM61.6 7.8c-.3-.1-.6-.1-.9-.2.5.1 1 .2 1.4.4-.1 0-.3-.1-.5-.2zM72.1 12.2c-.2-.1-.3-.2-.5-.2.4.3.9.5 1.3.8-.3-.2-.5-.4-.8-.6zM75.9 14.8c.5.3.9.7 1.4 1-.5-.4-1-.7-1.4-1z"/><path d="M93.1 43c-.2-1.3-.5-2.5-.8-3.7-.1-.5-.2-1-.4-1.4-1-3.3-2.3-6.5-4-9.4-.3-.4-.5-.9-.8-1.3-.6-1-1.3-2-2-3-.3-.5-.7-.9-1-1.4-.9-1.1-1.9-2.2-2.9-3.3l-.8-.8c-1-1-2.1-2-3.3-2.9-.4-.4-.9-.7-1.4-1-1-.7-1.9-1.4-3-2-.4-.3-.9-.5-1.3-.8-3-1.7-6.1-3-9.4-4-.5-.1-1-.2-1.4-.4-1.2-.3-2.5-.6-3.7-.8-.6-.1-1.1-.2-1.7-.3a47.08 47.08 0 0 0-10.6 0c-.6.1-1.2.2-1.7.3-1.3.2-2.5.5-3.7.8-.5.1-1 .2-1.4.4-3.3 1-6.5 2.3-9.4 4-.4.3-.9.5-1.3.8-1 .6-2 1.3-3 2-.5.3-.9.7-1.4 1-1.1.9-2.2 1.9-3.3 2.9l-.8.8c-1 1-2 2.1-2.9 3.3-.4.4-.7.9-1 1.4-.7 1-1.4 1.9-2 3-.3.4-.5.9-.8 1.3-1.7 3-3 6.1-4 9.4-.1.5-.2 1-.4 1.4-.3 1.2-.6 2.5-.8 3.7-.1.6-.2 1.1-.3 1.7a47.08 47.08 0 0 0 0 10.6c.1.6.2 1.2.3 1.7.2 1.3.5 2.5.8 3.7.1.5.2 1 .4 1.4 1 3.3 2.3 6.5 4 9.4.3.4.5.9.8 1.3.6 1 1.3 2 2 3 .3.5.7.9 1 1.4.9 1.1 1.9 2.2 2.9 3.3l.8.8c1 1 2.1 2 3.3 2.9.4.4.9.7 1.4 1 1 .7 1.9 1.4 3 2 .4.3.9.5 1.3.8 3 1.7 6.1 3 9.4 4 .5.1 1 .2 1.4.4 1.2.3 2.5.6 3.7.8.6.1 1.1.2 1.7.3a47.08 47.08 0 0 0 10.6 0c.6-.1 1.2-.2 1.7-.3 1.3-.2 2.5-.5 3.7-.8.5-.1 1-.2 1.4-.4 3.3-1 6.5-2.3 9.4-4 .4-.3.9-.5 1.3-.8 1-.6 2-1.3 3-2 .5-.3.9-.7 1.4-1 1.1-.9 2.2-1.9 3.3-2.9l.8-.8c1-1 2-2.1 2.9-3.3.4-.4.7-.9 1-1.4.7-1 1.4-1.9 2-3 .3-.4.5-.9.8-1.3 1.7-3 3-6.1 4-9.4.1-.5.2-1 .4-1.4.3-1.2.6-2.5.8-3.7.1-.6.2-1.1.3-1.7a47.08 47.08 0 0 0 0-10.6c-.1-.6-.2-1.1-.3-1.7zM62.5 32.8c0-.6.1-1.2.4-1.8.2-.6.6-1.1 1-1.5.4-.4.9-.8 1.5-1s1.2-.4 1.8-.4c.6 0 1.2.1 1.8.4s1.1.6 1.5 1 .8.9 1 1.5.4 1.2.4 1.8v12.5c0 .7-.1 1.3-.4 1.8-.2.6-.6 1.1-1 1.5-.4.4-.9.8-1.5 1-.6.2-1.2.4-1.8.4-.7 0-1.3-.1-1.8-.4-.6-.2-1.1-.6-1.5-1s-.7-.9-1-1.5-.4-1.2-.4-1.8V32.8zm-34.4 0c0-.6.1-1.2.4-1.8s.6-1.1 1-1.5.9-.8 1.5-1c.6-.2 1.2-.4 1.8-.4.6 0 1.2.1 1.8.4.6.2 1.1.6 1.5 1 .4.4.8.9 1 1.5.2.6.4 1.2.4 1.8v12.5c0 .6-.1 1.2-.4 1.8-.2.6-.6 1.1-1 1.5-.4.4-.9.8-1.5 1-.6.2-1.2.4-1.8.4-.7 0-1.3-.1-1.8-.4-.6-.2-1.1-.6-1.5-1-.4-.4-.8-.9-1-1.5-.2-.6-.4-1.2-.4-1.8V32.8zm49.1 33.6c-.8 3.1-2.1 5.9-3.8 8.5-1.7 2.6-3.8 4.8-6.2 6.7-2.4 1.9-5.1 3.3-8 4.4s-6 1.6-9.2 1.6-6.3-.6-9.2-1.6-5.6-2.5-8-4.4c-2.4-1.9-4.5-4.1-6.2-6.7-1.7-2.6-3-5.4-3.8-8.5l-.1-.8h54.7l-.2.8z" fill="#ffc83d"/><path d="M54.7 79.5c-1.4-.8-3-1.3-4.7-1.3s-3.2.4-4.7 1.3c-1.4.8-2.6 2-3.4 3.5 2.6.9 5.3 1.4 8.1 1.4s5.5-.5 8.1-1.4c-.8-1.5-2-2.6-3.4-3.5z" fill="#f03a17"/><path d="M29.5 48.6c.4.4.9.8 1.5 1 .6.2 1.2.4 1.8.4.6 0 1.2-.1 1.8-.4.6-.2 1.1-.6 1.5-1 .4-.4.8-.9 1-1.5.2-.6.4-1.2.4-1.8V32.8c0-.6-.1-1.2-.4-1.8-.2-.6-.6-1.1-1-1.5-.4-.4-.9-.8-1.5-1-.6-.2-1.2-.4-1.8-.4-.7 0-1.3.1-1.8.4-.6.2-1.1.6-1.5 1s-.8.9-1 1.5-.4 1.2-.4 1.8v12.5c0 .7.1 1.3.4 1.8.2.6.6 1.1 1 1.5zM63.9 48.6c.4.4.9.8 1.5 1 .6.2 1.2.4 1.8.4.6 0 1.2-.1 1.8-.4.6-.2 1.1-.6 1.5-1 .4-.4.8-.9 1-1.5.2-.6.4-1.2.4-1.8V32.8c0-.6-.1-1.2-.4-1.8s-.6-1.1-1-1.5-.9-.8-1.5-1-1.2-.4-1.8-.4c-.7 0-1.3.1-1.8.4s-1.1.6-1.5 1c-.4.4-.7.9-1 1.5-.2.6-.4 1.2-.4 1.8v12.5c0 .6.1 1.2.4 1.8s.6 1.1 1 1.5zM22.8 66.4c.8 3.1 2.1 5.9 3.8 8.5 1.7 2.6 3.8 4.8 6.2 6.7 2.4 1.9 5.1 3.3 8 4.4s6 1.6 9.2 1.6 6.3-.5 9.2-1.6 5.6-2.5 8-4.4c2.4-1.9 4.4-4.1 6.2-6.7 1.7-2.6 3-5.4 3.8-8.5l.1-.8H22.7l.1.8zM41.9 83c.8-1.5 2-2.6 3.4-3.5 1.4-.8 3-1.3 4.7-1.3s3.2.4 4.7 1.3c1.4.8 2.6 2 3.4 3.5-2.6.9-5.3 1.4-8.1 1.4s-5.5-.5-8.1-1.4z"/><path d="M98.2 36.7c-1.2-4.3-2.9-8.2-5-11.9s-4.8-7.1-7.8-10.1S78.9 9 75.2 6.8c-3.7-2.2-7.7-3.9-11.9-5S54.6 0 50 0s-9 .6-13.3 1.8-8.2 2.9-11.9 5-7.1 4.8-10.1 7.8S9 21.1 6.8 24.8s-3.9 7.7-5 11.9S0 45.4 0 50s.6 9 1.8 13.3 2.9 8.2 5 11.9c2.2 3.7 4.8 7.1 7.8 10.1S21 91 24.7 93.1s7.7 3.9 11.9 5S45.4 100 50 100s9-.6 13.3-1.8 8.2-2.9 11.9-5c3.7-2.2 7.1-4.8 10.1-7.8S91 79 93.1 75.3c2.2-3.7 3.9-7.7 5-11.9S100 54.6 100 50s-.6-9-1.8-13.3zm-4.8 18.6c-.1.6-.2 1.2-.3 1.7-.2 1.3-.5 2.5-.8 3.7-.1.3-.1.6-.2.9 0 .2-.1.3-.2.5-1 3.3-2.3 6.5-4 9.4-.1.2-.2.3-.2.5-.2.3-.4.5-.5.8-.6 1-1.3 2-2 3-.3.5-.7.9-1 1.4-.9 1.1-1.9 2.2-2.9 3.3-.1.1-.2.3-.4.4l-.4.4c-1 1-2.1 2-3.3 2.9-.4.4-.9.7-1.4 1-1 .7-1.9 1.4-3 2-.3.2-.5.4-.8.5-.2.1-.3.2-.5.2-3 1.7-6.1 3-9.4 4-.2.1-.3.1-.5.2-.3.1-.6.1-.9.2-1.2.3-2.5.6-3.7.8-.6.1-1.1.2-1.7.3a47.08 47.08 0 0 1-10.6 0c-.6-.1-1.2-.2-1.7-.3-1.3-.2-2.5-.5-3.7-.8-.3-.1-.6-.1-.9-.2-.2 0-.3-.1-.5-.2-3.3-1-6.5-2.3-9.4-4-.2-.1-.3-.2-.5-.2-.3-.2-.5-.4-.8-.5-1-.6-2-1.3-3-2-.5-.3-.9-.7-1.4-1-1.1-.9-2.2-1.9-3.3-2.9-.1-.1-.3-.2-.4-.4l-.4-.4c-1-1-2-2.1-2.9-3.3-.4-.4-.7-.9-1-1.4-.7-1-1.4-1.9-2-3-.2-.3-.4-.5-.5-.8-.1-.2-.2-.3-.2-.5-1.7-3-3-6.1-4-9.4-.1-.1-.2-.3-.3-.5-.1-.3-.1-.6-.2-.9-.3-1.2-.6-2.5-.8-3.7-.1-.6-.2-1.1-.3-1.7a47.08 47.08 0 0 1 0-10.6c.1-.6.2-1.2.3-1.7.2-1.3.5-2.5.8-3.7.1-.3.1-.6.2-.9.1-.2.2-.4.2-.5 1-3.3 2.3-6.5 4-9.4.1-.2.2-.3.2-.5.2-.3.4-.5.5-.8.6-1 1.3-2 2-3 .3-.5.7-.9 1-1.4.9-1.1 1.9-2.2 2.9-3.3.1-.1.2-.3.4-.4.1-.1.3-.2.4-.4 1-1 2.1-2 3.3-2.9.4-.4.9-.7 1.4-1 1-.7 1.9-1.4 3-2 .3-.2.5-.4.8-.5.2-.1.3-.2.5-.2 3-1.7 6.1-3 9.4-4l.6-.3c.3-.1.6-.1.9-.2 1.2-.3 2.5-.6 3.7-.8.6-.1 1.1-.2 1.7-.3a47.08 47.08 0 0 1 10.6 0c.6.1 1.2.2 1.7.3 1.3.2 2.5.5 3.7.8.3.1.6.1.9.2.2.1.4.2.5.2 3.3 1 6.5 2.3 9.4 4 .2.1.3.2.5.2.3.2.5.4.8.5 1 .6 2 1.3 3 2 .5.3.9.7 1.4 1 1.1.9 2.2 1.9 3.3 2.9.1.1.3.2.4.4.1.1.2.3.4.4 1 1 2 2.1 2.9 3.3.4.4.7.9 1 1.4.7 1 1.4 1.9 2 3 .2.3.4.5.5.8.1.2.2.3.2.5 1.7 3 3 6.1 4 9.4.1.2.1.3.2.5.1.3.1.6.2.9.3 1.2.6 2.5.8 3.7.1.6.2 1.1.3 1.7.2 1.7.3 3.5.3 5.3s-.1 3.6-.3 5.4z"/></svg>