<svg xmlns="http://www.w3.org/2000/svg" width="1000" height="1000"><path d="M877.6 279.1c-19-32.5-41.7-62-68.3-88.5-26.5-26.5-56-49.3-88.5-68.3s-67.3-33.7-104.6-44.1c-37.3-10.4-76-15.7-116.3-15.7s-79.1 5.2-116.3 15.7c-37.3 10.4-72.1 25.1-104.6 44.1s-62 41.7-88.5 68.3c-26.5 26.5-49.3 56-68.3 88.5s-33.7 67.3-44.1 104.6c-10.4 37.2-15.7 76-15.7 116.3s5.2 79.1 15.7 116.3c10.4 37.2 25.1 72.1 44.1 104.6s41.7 62 68.3 88.5c26.5 26.5 56 49.3 88.5 68.3s67.3 33.7 104.6 44.1c37.2 10.4 76 15.7 116.3 15.7s79.1-5.2 116.3-15.7c37.2-10.4 72.1-25.1 104.6-44.1s62-41.7 88.5-68.3c26.5-26.5 49.3-56 68.3-88.5s33.7-67.3 44.1-104.6c10.4-37.2 15.7-76 15.7-116.3s-5.2-79.1-15.7-116.3c-10.4-37.2-25.1-72.1-44.1-104.6zm-252.4 49.2c0-6.4 1.2-12.4 3.7-18 2.5-5.7 5.7-10.7 9.8-15 4.1-4.3 8.9-7.8 14.6-10.2 5.7-2.5 11.8-3.7 18.5-3.7 6.4 0 12.5 1.2 18.3 3.7 5.8 2.5 10.8 5.8 15 10 4.2 4.2 7.5 9.2 10 15 2.5 5.8 3.7 11.9 3.7 18.3V453c0 6.7-1.2 12.8-3.7 18.5-2.5 5.7-5.8 10.6-10 14.8-4.2 4.2-9.2 7.5-15 10-5.8 2.5-11.9 3.7-18.3 3.7-6.7 0-12.8-1.2-18.5-3.7-5.7-2.5-10.5-5.9-14.6-10.2-4.1-4.3-7.3-9.3-9.8-15-2.5-5.7-3.7-11.7-3.7-18V328.3zm-343.9 0c0-6.4 1.2-12.5 3.7-18.3 2.5-5.8 5.8-10.8 10-15 4.2-4.2 9.1-7.5 14.8-10 5.7-2.5 11.8-3.7 18.5-3.7 6.4 0 12.4 1.2 18 3.7 5.7 2.5 10.7 5.9 15 10.2 4.3 4.3 7.7 9.3 10.2 15 2.5 5.7 3.7 11.7 3.7 18V453c0 6.4-1.2 12.4-3.7 18-2.5 5.7-5.9 10.7-10.2 15-4.3 4.3-9.3 7.8-15 10.2-5.7 2.5-11.7 3.7-18 3.7-6.7 0-12.8-1.2-18.5-3.7-5.7-2.5-10.6-5.8-14.8-10-4.2-4.2-7.5-9.1-10-14.8-2.5-5.7-3.7-11.8-3.7-18.5V328.3zm490.9 335.6c-8.4 31-21.2 59.4-38.5 85.2-17.3 25.8-37.8 48-61.7 66.7-23.9 18.7-50.5 33.3-79.8 43.7-29.3 10.4-60 15.7-92.2 15.7s-62.9-5.2-92.2-15.7c-29.3-10.4-55.9-25-79.8-43.7-23.9-18.7-44.6-40.9-62-66.7-17.4-25.8-30.1-54.2-38.3-85.2l-1.3-7.8h547l-1.2 7.8z" fill="#ffc83d"/><path d="M581.3 830c-8.4-14.8-19.9-26.4-34.3-34.8-14.5-8.4-30.1-12.6-47-12.6-16.8 0-32.5 4.2-47 12.6-14.5 8.4-25.9 20-34.3 34.8 26.4 9.3 53.5 13.9 81.3 13.9s54.9-4.6 81.3-13.9z" fill="#f03a17"/><path d="M982.2 367c-11.9-42.6-28.7-82.4-50.4-119.3-21.7-37-47.8-70.7-78.3-101.1C823 116.1 789.3 90 752.4 68.3c-37-21.7-76.7-38.5-119.3-50.4C590.4 5.9 546.1 0 500 0s-90.4 5.9-133 17.8c-42.6 11.9-82.4 28.7-119.3 50.4-37 21.7-70.7 47.8-101.1 78.3C116.1 177 90 210.7 68.3 247.6c-21.7 37-38.6 76.7-50.4 119.3C5.9 409.6 0 453.9 0 500s5.9 90.4 17.8 133c11.9 42.6 28.7 82.4 50.4 119.3 21.7 37 47.8 70.7 78.3 101.1 30.4 30.4 64.1 56.5 101.1 78.3 37 21.7 76.7 38.5 119.3 50.4 42.6 11.9 87 17.8 133 17.8s90.4-5.9 133-17.8c42.6-11.9 82.4-28.7 119.3-50.4 37-21.7 70.7-47.8 101.1-78.3 30.4-30.4 56.5-64.1 78.3-101.1 21.7-37 38.5-76.7 50.4-119.3 11.9-42.6 17.8-87 17.8-133s-5.7-90.4-17.6-133zm-60.5 249.3c-10.4 37.2-25.1 72.1-44.1 104.6s-41.7 62-68.3 88.5c-26.5 26.5-56 49.3-88.5 68.3s-67.3 33.7-104.6 44.1c-37.3 10.4-76 15.7-116.3 15.7s-79.1-5.2-116.3-15.7c-37.3-10.4-72.1-25.1-104.6-44.1s-62-41.7-88.5-68.3c-26.5-26.5-49.3-56-68.3-88.5s-33.7-67.3-44.1-104.6c-10.4-37.2-15.7-76-15.7-116.3s5.2-79.1 15.7-116.3c10.4-37.2 25.1-72.1 44.1-104.6s41.7-62 68.3-88.5c26.5-26.5 56-49.3 88.5-68.3s67.3-33.7 104.6-44.1c37.2-10.4 76-15.7 116.3-15.7s79.1 5.2 116.3 15.7c37.2 10.4 72.1 25.1 104.6 44.1s62 41.7 88.5 68.3c26.5 26.5 49.3 56 68.3 88.5s33.7 67.3 44.1 104.6c10.4 37.2 15.7 76 15.7 116.3s-5.2 79.1-15.7 116.3z"/><path d="M227.8 663.9c8.1 31 20.9 59.4 38.3 85.2 17.4 25.8 38 48 62 66.7 23.9 18.7 50.5 33.3 79.8 43.7 29.3 10.4 60 15.7 92.2 15.7s62.9-5.2 92.2-15.7c29.3-10.4 55.9-25 79.8-43.7 23.9-18.7 44.5-40.9 61.7-66.7 17.2-25.8 30.1-54.2 38.5-85.2l1.3-7.8h-547l1.2 7.8zM453 795.2c14.5-8.4 30.1-12.6 47-12.6 16.8 0 32.5 4.2 47 12.6 14.5 8.4 25.9 20 34.3 34.8-26.4 9.3-53.5 13.9-81.3 13.9s-54.9-4.6-81.3-13.9c8.4-14.8 19.8-26.4 34.3-34.8zM638.7 486.1c4.1 4.3 8.9 7.8 14.6 10.2 5.7 2.5 11.8 3.7 18.5 3.7 6.4 0 12.5-1.2 18.3-3.7 5.8-2.5 10.8-5.8 15-10 4.2-4.2 7.5-9.1 10-14.8 2.5-5.7 3.7-11.8 3.7-18.5V328.3c0-6.4-1.2-12.5-3.7-18.3-2.5-5.8-5.8-10.8-10-15-4.2-4.2-9.2-7.5-15-10-5.8-2.5-11.9-3.7-18.3-3.7-6.7 0-12.8 1.2-18.5 3.7-5.7 2.5-10.5 5.9-14.6 10.2-4.1 4.3-7.3 9.3-9.8 15-2.5 5.7-3.7 11.7-3.7 18V453c0 6.4 1.2 12.4 3.7 18 2.5 5.7 5.7 10.7 9.8 15.1zM295 486.3c4.2 4.2 9.1 7.5 14.8 10 5.7 2.5 11.8 3.7 18.5 3.7 6.4 0 12.4-1.2 18-3.7 5.7-2.5 10.7-5.9 15-10.2 4.3-4.3 7.7-9.3 10.2-15 2.5-5.7 3.7-11.7 3.7-18V328.3c0-6.4-1.2-12.4-3.7-18-2.5-5.7-5.9-10.7-10.2-15-4.3-4.3-9.3-7.8-15-10.2-5.7-2.5-11.7-3.7-18-3.7-6.7 0-12.8 1.2-18.5 3.7-5.7 2.5-10.6 5.8-14.8 10-4.2 4.2-7.5 9.2-10 15-2.5 5.8-3.7 11.9-3.7 18.3V453c0 6.7 1.2 12.8 3.7 18.5 2.5 5.7 5.8 10.6 10 14.8z"/></svg>