<svg id="Layer_1" xmlns="http://www.w3.org/2000/svg" width="100" height="100"><style>.st0{fill:none}</style><path class="st0" d="M19.1 19.1c-.1.1-.2.3-.4.4l.8-.8c-.1.1-.3.2-.4.4zM38.4 7.8c-.2.1-.4.2-.5.2.5-.1 1-.2 1.4-.4-.3.1-.6.1-.9.2zM12.2 27.9c-.1.2-.2.3-.2.5.3-.4.5-.9.8-1.3-.2.3-.4.5-.6.8zM7.8 38.4c-.1.3-.1.6-.2.9.1-.5.2-1 .4-1.4 0 .1-.1.3-.2.5zM27.9 12.2c-.3.2-.5.4-.8.5.4-.3.9-.5 1.3-.8-.2.2-.3.2-.5.3zM38.4 92.2c.3.1.6.1.9.2-.5-.1-1-.2-1.4-.4.1 0 .3.1.5.2zM61.6 7.8c-.3-.1-.6-.1-.9-.2.5.1 1 .2 1.4.4-.1 0-.3-.1-.5-.2zM7.8 61.6c.1.2.2.4.2.5-.1-.5-.2-1-.4-1.4.1.3.1.6.2.9zM27.9 87.8c.2.1.3.2.5.2-.4-.3-.9-.5-1.3-.8.3.2.5.4.8.6zM12.2 72.1c.2.3.4.5.5.8-.3-.4-.5-.9-.8-1.3.2.2.2.3.3.5zM19.1 80.9l.4.4-.8-.8c.1.1.2.3.4.4zM92.2 38.4c0-.2-.1-.3-.2-.5.1.5.2 1 .4 1.4-.1-.3-.1-.6-.2-.9zM72.1 12.2c-.2-.1-.3-.2-.5-.2.4.3.9.5 1.3.8-.3-.2-.5-.4-.8-.6zM72.1 87.8c.3-.2.5-.4.8-.5-.4.3-.9.5-1.3.8.2-.2.3-.2.5-.3zM87.8 72.1c.1-.2.2-.3.2-.5-.3.4-.5.9-.8 1.3.2-.3.4-.5.6-.8zM92.2 61.6c.1-.3.1-.6.2-.9-.1.5-.2 1-.4 1.4 0-.1.1-.3.2-.5zM80.9 80.9l.4-.4-.8.8c.1-.1.3-.2.4-.4zM87.8 27.9c-.2-.3-.4-.5-.5-.8.3.4.5.9.8 1.3-.2-.2-.2-.3-.3-.5zM80.9 19.1c-.1-.1-.3-.2-.4-.4l.8.8c-.1-.1-.2-.3-.4-.4zM61.6 92.2c.2 0 .3-.1.5-.2-.5.1-1 .2-1.4.4.3-.1.6-.1.9-.2z"/><path d="M93.1 43c-.2-1.3-.5-2.5-.8-3.7-.1-.5-.2-1-.4-1.4-1-3.3-2.3-6.5-4-9.4-.3-.4-.5-.9-.8-1.3-.6-1-1.3-2-2-3-.3-.5-.7-.9-1-1.4-.9-1.1-1.9-2.2-2.9-3.3l-.8-.8c-1-1-2.1-2-3.3-2.9-.4-.4-.9-.7-1.4-1-1-.7-1.9-1.4-3-2-.4-.3-.9-.5-1.3-.8-3-1.7-6.1-3-9.4-4-.5-.1-1-.2-1.4-.4-1.2-.3-2.5-.6-3.7-.8-.6-.1-1.1-.2-1.7-.3a47.08 47.08 0 0 0-10.6 0c-.6.1-1.2.2-1.7.3-1.3.2-2.5.5-3.7.8-.5.1-1 .2-1.4.4-3.3 1-6.5 2.3-9.4 4-.4.3-.9.5-1.3.8-1 .6-2 1.3-3 2-.5.3-.9.7-1.4 1-1.1.9-2.2 1.9-3.3 2.9l-.8.8c-1 1-2 2.1-2.9 3.3-.4.4-.7.9-1 1.4-.7 1-1.4 1.9-2 3-.3.4-.5.9-.8 1.3-1.7 3-3 6.1-4 9.4-.1.5-.2 1-.4 1.4-.3 1.2-.6 2.5-.8 3.7-.1.6-.2 1.1-.3 1.7a47.08 47.08 0 0 0 0 10.6c.1.6.2 1.2.3 1.7.2 1.3.5 2.5.8 3.7.1.5.2 1 .4 1.4 1 3.3 2.3 6.5 4 9.4.3.4.5.9.8 1.3.6 1 1.3 2 2 3 .3.5.7.9 1 1.4.9 1.1 1.9 2.2 2.9 3.3l.8.8c1 1 2.1 2 3.3 2.9.4.4.9.7 1.4 1 1 .7 1.9 1.4 3 2 .4.3.9.5 1.3.8 3 1.7 6.1 3 9.4 4 .5.1 1 .2 1.4.4 1.2.3 2.5.6 3.7.8.6.1 1.1.2 1.7.3a47.08 47.08 0 0 0 10.6 0c.6-.1 1.2-.2 1.7-.3 1.3-.2 2.5-.5 3.7-.8.5-.1 1-.2 1.4-.4 3.3-1 6.5-2.3 9.4-4 .4-.3.9-.5 1.3-.8 1-.6 2-1.3 3-2 .5-.3.9-.7 1.4-1 1.1-.9 2.2-1.9 3.3-2.9l.8-.8c1-1 2-2.1 2.9-3.3.4-.4.7-.9 1-1.4.7-1 1.4-1.9 2-3 .3-.4.5-.9.8-1.3 1.7-3 3-6.1 4-9.4.1-.5.2-1 .4-1.4.3-1.2.6-2.5.8-3.7.1-.6.2-1.1.3-1.7a47.08 47.08 0 0 0 0-10.6c-.1-.6-.2-1.1-.3-1.7zm-71.2 2.3c0-1.5.3-2.9.9-4.3.6-1.3 1.4-2.5 2.3-3.5 1-1 2.1-1.8 3.5-2.3 1.3-.6 2.8-.8 4.3-.8s2.9.3 4.3.8c1.3.6 2.5 1.3 3.5 2.3 1 1 1.8 2.1 2.3 3.5.6 1.3.8 2.8.8 4.3v1.6h-3.1c0-1.1-.2-2.1-.6-3-.4-1-1-1.8-1.7-2.5s-1.5-1.3-2.5-1.7c-1-.4-2-.6-3-.6-1.1 0-2.1.2-3.1.6-.9.4-1.8 1-2.5 1.7s-1.3 1.5-1.7 2.5c-.4 1-.6 2-.6 3h-3.1v-1.6zM77 67.5c-.2.7-.4 1.3-.7 2-.3.7-.5 1.3-.8 2-.3.6-.6 1.2-.9 1.7-1.2 2.2-2.7 4.2-4.5 6-1.8 1.8-3.7 3.3-5.8 4.5-2.1 1.2-4.4 2.2-6.8 2.9s-4.9 1-7.4 1-5-.3-7.4-1-4.7-1.6-6.8-2.9-4.1-2.8-5.8-4.5c-1.8-1.8-3.3-3.8-4.5-6-.3-.5-.5-1-.8-1.7s-.6-1.3-.9-2c-.3-.7-.5-1.4-.7-2-.2-.7-.4-1.3-.4-1.8h54.8c-.3.5-.4 1.1-.6 1.8zm1.1-20.6H75c0-1.1-.2-2.1-.6-3-.4-1-1-1.8-1.7-2.5s-1.5-1.3-2.5-1.7c-1-.4-2-.6-3-.6-1.1 0-2.1.2-3.1.6-.9.4-1.8 1-2.5 1.7-.6.6-1.2 1.5-1.6 2.4-.4 1-.6 2-.6 3h-3.1v-1.6c0-1.5.3-2.9.8-4.3.6-1.3 1.3-2.5 2.3-3.5 1-1 2.1-1.8 3.5-2.3 1.3-.6 2.7-.8 4.3-.8 1.5 0 2.9.3 4.3.8 1.3.6 2.5 1.3 3.5 2.3 1 1 1.8 2.1 2.3 3.5.6 1.3.9 2.8.9 4.3v1.7z" fill="#ffc83d"/><path d="M58.1 83c-.8-1.5-2-2.6-3.4-3.5-1.4-.8-3-1.3-4.7-1.3s-3.2.4-4.7 1.3c-1.4.8-2.6 2-3.4 3.5 2.6.9 5.3 1.4 8.1 1.4s5.5-.5 8.1-1.4z" fill="#f03a17"/><path d="M98.2 36.7c-1.2-4.3-2.9-8.2-5-11.9s-4.8-7.1-7.8-10.1S78.9 9 75.2 6.8c-3.7-2.2-7.7-3.9-11.9-5S54.6 0 50 0s-9 .6-13.3 1.8-8.2 2.9-11.9 5-7.1 4.8-10.1 7.8S9 21.1 6.8 24.8s-3.9 7.7-5 11.9S0 45.4 0 50s.6 9 1.8 13.3 2.9 8.2 5 11.9c2.2 3.7 4.8 7.1 7.8 10.1S21 91 24.7 93.1s7.7 3.9 11.9 5S45.4 100 50 100s9-.6 13.3-1.8 8.2-2.9 11.9-5c3.7-2.2 7.1-4.8 10.1-7.8S91 79 93.1 75.3c2.2-3.7 3.9-7.7 5-11.9S100 54.6 100 50s-.6-9-1.8-13.3zm-4.8 18.6c-.1.6-.2 1.2-.3 1.7-.2 1.3-.5 2.5-.8 3.7-.1.3-.1.6-.2.9 0 .2-.1.3-.2.5-1 3.3-2.3 6.5-4 9.4-.1.2-.2.3-.2.5-.2.3-.4.5-.5.8-.6 1-1.3 2-2 3-.3.5-.7.9-1 1.4-.9 1.1-1.9 2.2-2.9 3.3-.1.1-.2.3-.4.4l-.4.4c-1 1-2.1 2-3.3 2.9-.4.4-.9.7-1.4 1-1 .7-1.9 1.4-3 2-.3.2-.5.4-.8.5-.2.1-.3.2-.5.2-3 1.7-6.1 3-9.4 4-.2.1-.3.1-.5.2-.3.1-.6.1-.9.2-1.2.3-2.5.6-3.7.8-.6.1-1.1.2-1.7.3a47.08 47.08 0 0 1-10.6 0c-.6-.1-1.2-.2-1.7-.3-1.3-.2-2.5-.5-3.7-.8-.3-.1-.6-.1-.9-.2-.2 0-.3-.1-.5-.2-3.3-1-6.5-2.3-9.4-4-.2-.1-.3-.2-.5-.2-.3-.2-.5-.4-.8-.5-1-.6-2-1.3-3-2-.5-.3-.9-.7-1.4-1-1.1-.9-2.2-1.9-3.3-2.9-.1-.1-.3-.2-.4-.4l-.4-.4c-1-1-2-2.1-2.9-3.3-.4-.4-.7-.9-1-1.4-.7-1-1.4-1.9-2-3-.2-.3-.4-.5-.5-.8-.1-.2-.2-.3-.2-.5-1.7-3-3-6.1-4-9.4-.1-.1-.2-.3-.3-.5-.1-.3-.1-.6-.2-.9-.3-1.2-.6-2.5-.8-3.7-.1-.6-.2-1.1-.3-1.7a47.08 47.08 0 0 1 0-10.6c.1-.6.2-1.2.3-1.7.2-1.3.5-2.5.8-3.7.1-.3.1-.6.2-.9.1-.2.2-.4.2-.5 1-3.3 2.3-6.5 4-9.4.1-.2.2-.3.2-.5.2-.3.4-.5.5-.8.6-1 1.3-2 2-3 .3-.5.7-.9 1-1.4.9-1.1 1.9-2.2 2.9-3.3.1-.1.2-.3.4-.4.1-.1.3-.2.4-.4 1-1 2.1-2 3.3-2.9.4-.4.9-.7 1.4-1 1-.7 1.9-1.4 3-2 .3-.2.5-.4.8-.5.2-.1.3-.2.5-.2 3-1.7 6.1-3 9.4-4l.6-.3c.3-.1.6-.1.9-.2 1.2-.3 2.5-.6 3.7-.8.6-.1 1.1-.2 1.7-.3a47.08 47.08 0 0 1 10.6 0c.6.1 1.2.2 1.7.3 1.3.2 2.5.5 3.7.8.3.1.6.1.9.2.2.1.4.2.5.2 3.3 1 6.5 2.3 9.4 4 .2.1.3.2.5.2.3.2.5.4.8.5 1 .6 2 1.3 3 2 .5.3.9.7 1.4 1 1.1.9 2.2 1.9 3.3 2.9.1.1.3.2.4.4.1.1.2.3.4.4 1 1 2 2.1 2.9 3.3.4.4.7.9 1 1.4.7 1 1.4 1.9 2 3 .2.3.4.5.5.8.1.2.2.3.2.5 1.7 3 3 6.1 4 9.4.1.2.1.3.2.5.1.3.1.6.2.9.3 1.2.6 2.5.8 3.7.1.6.2 1.1.3 1.7.2 1.7.3 3.5.3 5.3s-.1 3.6-.3 5.4z"/><path d="M23 67.4c.2.7.5 1.3.7 2 .3.7.6 1.4.9 2s.6 1.2.8 1.7c1.2 2.2 2.7 4.2 4.5 6 1.8 1.8 3.7 3.3 5.8 4.5s4.4 2.2 6.8 2.9 4.9 1 7.4 1 5-.3 7.4-1 4.7-1.6 6.8-2.9c2.1-1.2 4.1-2.8 5.8-4.5 1.8-1.8 3.3-3.8 4.5-6 .3-.5.6-1.1.9-1.7.3-.6.6-1.3.8-2 .3-.7.5-1.3.7-2 .2-.7.3-1.3.4-1.9H22.6c.1.6.2 1.2.4 1.9zm22.3 12.1c1.4-.8 3-1.3 4.7-1.3s3.2.4 4.7 1.3c1.4.8 2.6 2 3.4 3.5-2.6.9-5.3 1.4-8.1 1.4s-5.5-.5-8.1-1.4c.8-1.5 2-2.6 3.4-3.5zM25.6 43.8c.4-1 1-1.8 1.7-2.5s1.5-1.3 2.5-1.7c.9-.4 2-.6 3.1-.6s2.1.2 3 .6c1 .4 1.8 1 2.5 1.7s1.2 1.5 1.7 2.5c.4 1 .6 2 .6 3h3.1v-1.6c0-1.5-.3-2.9-.8-4.3-.6-1.3-1.3-2.5-2.3-3.5-1-1-2.1-1.8-3.5-2.3-1.3-.6-2.8-.8-4.3-.8s-2.9.3-4.3.8c-1.3.6-2.5 1.3-3.5 2.3-1 1-1.8 2.1-2.3 3.5-.6 1.3-.9 2.8-.9 4.3v1.6H25c0-1 .2-2 .6-3zM74.9 37.6c-1-1-2.1-1.8-3.5-2.3-1.3-.6-2.8-.8-4.3-.8s-3 .3-4.3.8c-1.3.6-2.5 1.3-3.5 2.3-1 1-1.8 2.1-2.3 3.5-.6 1.3-.8 2.8-.8 4.3V47h3.1c0-1.1.2-2.1.6-3 .4-1 1-1.8 1.7-2.5s1.5-1.3 2.5-1.7c.9-.4 2-.6 3.1-.6s2.1.2 3 .6c1 .4 1.8 1 2.5 1.7S74 43 74.4 44c.4 1 .6 2 .6 3h3.1v-1.6c0-1.5-.3-2.9-.9-4.3-.5-1.4-1.3-2.5-2.3-3.5z"/></svg>