<svg xmlns="http://www.w3.org/2000/svg" width="100" height="100"><radialGradient id="a" cx="50.027" cy="50.006" r="49.566" gradientTransform="matrix(1.0083 0 0 1.0087 -.42 -.443)" gradientUnits="userSpaceOnUse"><stop offset=".434" stop-color="#fff698"/><stop offset="1" stop-color="#fff698" stop-opacity="0"/></radialGradient><ellipse cx="50" cy="50" rx="50" ry="50" fill="url(#a)"/><radialGradient id="b" cx="49.974" cy="50.006" r="49.562" gradientTransform="matrix(1.0083 0 0 1.0087 -.42 -.443)" gradientUnits="userSpaceOnUse"><stop offset="0" stop-color="#f9ab55"/><stop offset=".151" stop-color="#f9ac57"/><stop offset=".206" stop-color="#f9af5e"/><stop offset=".245" stop-color="#fab569"/><stop offset=".276" stop-color="#fbbd7a"/><stop offset=".28" stop-color="#fbbe7d"/><stop offset=".403" stop-color="#fbc081" stop-opacity=".83"/><stop offset=".53" stop-color="#fcc68e" stop-opacity=".653"/><stop offset=".659" stop-color="#fcd1a2" stop-opacity=".474"/><stop offset=".789" stop-color="#fddfbf" stop-opacity=".292"/><stop offset=".92" stop-color="#fef2e4" stop-opacity=".111"/><stop offset="1" stop-color="#fff" stop-opacity="0"/></radialGradient><path d="M99.9 46.8c-.4-2.6-.8-4.6-.8-4.6s-21.5 3.6-36.7 6.1c-.1-.9-.3-1.8-.6-2.6 14.8-4.4 35.8-10.6 35.8-10.6s-.6-2-1.3-4.4C95 28.4 94 26.6 94 26.6S74.8 37 61.2 44.4c-.4-.7-.8-1.4-1.3-2.1C72.6 33.4 91 20.5 91 20.5s-1.2-1.7-2.7-3.8c-1.9-1.8-3.4-3.2-3.4-3.2S69.6 30 59.1 41.3c-.7-.7-1.5-1.4-2.4-2 9-12.6 21.8-30.4 21.8-30.4s-1.7-1.2-3.8-2.7c-2.4-1-4.2-1.9-4.2-1.9s-8.8 20.2-15 34.3c-.8-.4-1.6-.7-2.5-.9C57.3 23 63.6 1.9 63.6 1.9s-1.9-.6-4.4-1.3C56.6.4 54.6.2 54.6.2s-1.8 22-3.1 37.3c-.5-.1-1-.1-1.5-.1-.4 0-.8 0-1.2.1C48.2 22 47.3 0 47.3 0s-2 .1-4.6.2c-2.5.6-4.5 1.1-4.5 1.1s5.4 21.4 9.2 36.3c-.9.2-1.7.5-2.5.8-5.6-14.4-13.6-35-13.6-35s-1.9.9-4.3 1.8c-2.2 1.4-3.9 2.5-3.9 2.5s12.1 18.5 20.5 31.4c-.8.5-1.5 1-2.1 1.6-10-11.7-24.3-28.6-24.3-28.6s-1.6 1.3-3.5 3c-1.6 2-2.8 3.7-2.8 3.7s17.4 13.6 29.6 23c-.6.7-1.1 1.4-1.5 2.2C25.7 36 6.8 24.7 6.8 24.7s-1 1.7-2.4 4c-.8 2.5-1.5 4.4-1.5 4.4s20.8 7.2 35.4 12.2c-.3.8-.6 1.7-.7 2.6C22.5 44.6 1 40.1 1 40.1s-.4 2-1 4.5v4.6h37.4v.7c0 .7.1 1.3.2 1.9C22.3 53.7.5 56.4.5 56.4s.2 2 .6 4.6c.8 2.5 1.5 4.4 1.5 4.4s20.7-7.1 35.3-12.1c.2.9.6 1.7 1 2.5C25 62.6 5.3 72.2 5.3 72.2s.9 1.8 2 4.2c1.6 2 2.8 3.7 2.8 3.7s17.3-13.4 29.4-22.9c.5.7 1.1 1.4 1.8 2L15 85.5l3.3 3.3c2.2 1.4 3.9 2.5 3.9 2.5S34.1 73 42.5 60.1c.7.5 1.5 1 2.3 1.4C38 75.3 28.4 94.9 28.4 94.9s1.8.9 4.2 2c2.5.6 4.5 1.1 4.5 1.1s5.3-21 9.1-36c.8.3 1.7.4 2.7.5-1.9 15.3-4.6 36.9-4.6 36.9s2 .3 4.6.6c2.6-.2 4.6-.4 4.6-.4s-1.8-21.7-3.1-37.1c.9 0 1.8-.2 2.7-.4 3.1 15.1 7.6 36.4 7.6 36.4l4.5-.9c2.4-1 4.2-1.9 4.2-1.9s-8.7-19.9-14.9-34c.9-.3 1.7-.7 2.4-1.2 7.9 13.3 19 31.9 19 31.9s1.7-1 4-2.4c1.9-1.8 3.4-3.1 3.4-3.1s-14.7-16-25.2-27.3c.7-.6 1.3-1.2 1.9-2 11.8 10 28.3 24.1 28.3 24.1s1.3-1.6 3-3.5c1.2-2.3 2.2-4.1 2.2-4.1S74.3 63.7 60.8 56.4c.5-.8.8-1.6 1.1-2.5 14.4 5.6 34.6 13.6 34.6 13.6s.7-1.9 1.7-4.3c.4-2.6.8-4.6.8-4.6S77.5 55 62.3 52.5c.2-.8.3-1.6.3-2.5v-.2c15.4.7 37.2 1.6 37.2 1.6s0-2.1.1-4.6z" fill="url(#b)"/><ellipse cx="50" cy="50" rx="12.9" ry="12.9" fill="#fff698"/></svg>