<svg xmlns="http://www.w3.org/2000/svg" width="100" height="100"><radialGradient id="a" cx="81.851" cy="7423.509" r="49.466" gradientTransform="matrix(1.0106 0 0 -1.011 -32.72 7555.195)" gradientUnits="userSpaceOnUse"><stop offset=".351" stop-color="#fdc689"/><stop offset=".494" stop-color="#fdc98b" stop-opacity=".768"/><stop offset=".661" stop-color="#fdd38f" stop-opacity=".496"/><stop offset=".839" stop-color="#fde395" stop-opacity=".207"/><stop offset=".966" stop-color="#fdf49b" stop-opacity="0"/></radialGradient><ellipse cx="50" cy="50" rx="50" ry="50" fill="url(#a)"/><radialGradient id="b" cx="50.385" cy="49.213" r="49.584" gradientTransform="matrix(1 0 0 1.0023 0 .341)" gradientUnits="userSpaceOnUse"><stop offset="0" stop-color="#fff799"/><stop offset=".161" stop-color="#fff79d" stop-opacity=".84"/><stop offset=".342" stop-color="#fff8a8" stop-opacity=".658"/><stop offset=".534" stop-color="#fff9ba" stop-opacity=".466"/><stop offset=".733" stop-color="#fffbd3" stop-opacity=".267"/><stop offset=".935" stop-color="#fffef1" stop-opacity=".065"/><stop offset="1" stop-color="#fff" stop-opacity="0"/></radialGradient><path d="M55.6 53.4c10.9 5.9 31.4 17 38.1 20.7 1.2-2.1 2.2-4.3 3.1-6.5-7-2.7-28.7-11.3-40.3-15.8 12.3 2.1 35.4 5.9 42.8 7.2.4-2.3.7-4.7.8-7.2-7.4-.3-30.9-1.3-43.4-1.8 12.4-2.1 35.7-6 42.9-7.2-.3-2.4-.9-4.8-1.5-7.1-6.9 2.1-29.7 8.8-41.8 12.4 11.2-6 32.2-17.5 38.4-20.9-1-2-2.2-3.9-3.4-5.8-6.5 4.5-25.3 17.7-35.4 24.8 8.5-9.1 24.4-26.1 29.5-31.7-1.9-1.9-3.9-3.6-6.1-5.2-3.9 5.4-18.1 25.4-25.6 35.9C59 33.3 68.9 10.6 71.5 4.7c-2.2-1-4.5-1.9-6.8-2.6-1.8 6.1-8.9 30-12.7 42.5C53.1 31.5 55.2 6.4 55.7.3 53.9.1 52.2 0 50.4 0c-.7 0-1.4 0-2.1.1.2 6 1.3 31.3 1.8 44.5C46.9 31.7 40.6 7 39.2 1.3c-2.4.6-4.8 1.3-7 2.2 2.1 5.4 11.3 29.2 16.2 41.6C41 34 27 12.4 23.9 7.7c-2.1 1.3-4.1 2.8-5.9 4.4 3.6 4.3 20.2 24 28.8 34.2C36.3 38 16 22.2 11.6 18.8c-1.5 1.9-2.9 4-4.1 6.1 4.8 2.9 26.9 16.1 38.3 22.9C33.2 43.5 8.9 35.1 3.6 33.3c-.8 2.3-1.4 4.7-1.9 7.1 5.6 1.2 30.6 6.5 43.6 9.2H.8v.1c0 2.4.2 4.8.5 7.2 6-.7 31-3.8 44.1-5.5C33 55.7 9.3 63.9 3.5 65.9c.8 2.3 1.8 4.6 2.9 6.7 5.7-2.8 28.1-13.7 39.7-19.4-10.2 8-29.6 23.1-34.8 27.1 1.5 1.9 3.1 3.7 4.9 5.4l31.1-31.1c-7 10.7-20.2 31-24 36.8 2 1.3 4.1 2.5 6.4 3.5C32.8 88.7 43.4 67 49 55.6 45.9 67.9 40 91 38.2 98c2.3.6 4.7 1 7.1 1.3.9-7.2 3.9-30.8 5.4-43.3 1 12.5 3 36 3.6 43.4 2.4-.2 4.8-.6 7.1-1.1-1.5-7.3-6.3-30.3-8.9-42.6 5 11.5 14.4 32.9 17.4 39.8 2.2-1 4.3-2.1 6.4-3.3-3.9-6.5-15.8-26.6-22.1-37.3 8.4 9.2 24.2 26.3 29.3 31.9 1.8-1.6 3.4-3.3 5-5.2-5.6-5-23.4-20.1-32.9-28.2z" fill="url(#b)"/></svg>