<svg xmlns="http://www.w3.org/2000/svg" width="570" height="570"><path opacity=".1" fill="red" d="M0 0h570v570H0z"/><path d="M272.8 364.5c-6.6-8.1-23-23.8-36.4-35-39.9-33.1-45.4-37.8-61.6-54.2-29.9-30.2-42.6-60.5-42.5-101.6 0-20.1 1.3-27.8 6.4-39.6 8.7-20.1 21.5-35 37.9-44.1 11.6-6.5 17.3-9.3 36.7-9.4 20.3-.1 24.5 2.5 36.4 9.6 14.5 8.7 29.4 27.4 32.5 40.7l1.9 8.2 4.7-11.3c26.6-63.7 111.4-62.8 140.9 1.6 9.4 20.4 10.4 64 2.1 88.6-10.8 32-31.2 56.5-78.2 93.9-30.8 24.5-65.7 61.7-68.2 66.9-2.9 6.1-.2 1-12.6-14.3z" fill="red" stroke="#b20000" stroke-width="8" stroke-miterlimit="10"/></svg>